<svg width="32" height="32" viewBox="0 0 32 32" fill="none" xmlns="http://www.w3.org/2000/svg">
<path d="M18.6667 14.6667H10.6667M13.3334 20H10.6667M21.3334 9.33333H10.6667M26.6667 13.3333V9.06667C26.6667 6.82646 26.6667 5.70635 26.2307 4.85071C25.8472 4.09806 25.2353 3.48614 24.4827 3.10264C23.627 2.66667 22.5069 2.66667 20.2667 2.66667H11.7334C9.49316 2.66667 8.37306 2.66667 7.51741 3.10264C6.76476 3.48614 6.15284 4.09806 5.76935 4.85071C5.33337 5.70635 5.33337 6.82646 5.33337 9.06667V22.9333C5.33337 25.1735 5.33337 26.2936 5.76935 27.1493C6.15284 27.9019 6.76476 28.5139 7.51741 28.8974C8.37306 29.3333 9.49316 29.3333 11.7334 29.3333H16.6667M24 28C24 28 28 26.0935 28 23.2336V19.8972L25.0832 18.8549C24.3824 18.6039 23.616 18.6039 22.9152 18.8549L20 19.8972V23.2336C20 26.0935 24 28 24 28Z" stroke="#007B7B" stroke-width="2" stroke-linecap="round" stroke-linejoin="round"/>
</svg>
