<svg width="32" height="32" viewBox="0 0 32 32" fill="none" xmlns="http://www.w3.org/2000/svg">
<path d="M18.3254 3.51143L28.3627 10.0357C28.7174 10.2663 28.8947 10.3815 29.0232 10.5353C29.137 10.6714 29.2224 10.8288 29.2745 10.9984C29.3334 11.1899 29.3334 11.4014 29.3334 11.8244V21.6C29.3334 23.8402 29.3334 24.9603 28.8974 25.816C28.5139 26.5686 27.902 27.1805 27.1494 27.564C26.2937 28 25.1736 28 22.9334 28H9.06675C6.82654 28 5.70643 28 4.85079 27.564C4.09814 27.1805 3.48622 26.5686 3.10272 25.816C2.66675 24.9603 2.66675 23.8402 2.66675 21.6V11.8244C2.66675 11.4014 2.66675 11.1899 2.72564 10.9984C2.77777 10.8288 2.86321 10.6714 2.97695 10.5353C3.10543 10.3815 3.28277 10.2663 3.63744 10.0357L13.6748 3.51143M18.3254 3.51143C17.4837 2.96436 17.0629 2.69082 16.6095 2.58439C16.2087 2.49031 15.7915 2.49031 15.3907 2.58439C14.9373 2.69082 14.5165 2.96436 13.6748 3.51143M18.3254 3.51143L26.5816 8.87798C27.4987 9.47412 27.9573 9.77219 28.1161 10.1502C28.2549 10.4805 28.2549 10.8528 28.1161 11.1831C27.9573 11.5611 27.4987 11.8592 26.5816 12.4553L18.3254 17.8219C17.4837 18.369 17.0629 18.6425 16.6095 18.7489C16.2087 18.843 15.7915 18.843 15.3907 18.7489C14.9373 18.6425 14.5165 18.369 13.6748 17.8219L5.41856 12.4553C4.50143 11.8592 4.04287 11.5611 3.88405 11.1831C3.74525 10.8528 3.74525 10.4805 3.88405 10.1502C4.04287 9.77219 4.50143 9.47412 5.41856 8.87799L13.6748 3.51143M28.6667 25.3333L19.8097 17.3333M12.1905 17.3333L3.33341 25.3333" stroke="black" stroke-width="2" stroke-linecap="round" stroke-linejoin="round"/>
</svg>
