<svg width="9" height="9" viewBox="0 0 9 9" fill="none" xmlns="http://www.w3.org/2000/svg">
<path d="M8.2602 1.58321H7.18451C7.17013 1.57823 7.15517 1.57499 7.14001 1.5735H5.99469V0.623611C5.99476 0.552226 5.96678 0.483692 5.9169 0.432708C5.86695 0.381729 5.79907 0.352319 5.72775 0.35083H3.0191C2.94674 0.35083 2.87737 0.379527 2.82626 0.4307C2.77508 0.481873 2.74632 0.55125 2.74632 0.623609V1.5735H1.60683C1.59167 1.57499 1.57671 1.57822 1.56233 1.58321H0.486642C0.389152 1.58321 0.299105 1.63516 0.250401 1.71957C0.201689 1.80397 0.201689 1.90793 0.250401 1.99234C0.299114 2.07674 0.389154 2.12876 0.486642 2.12876H1.36302L2.07116 8.71633C2.07873 8.78337 2.11073 8.84523 2.16107 8.89025C2.21133 8.9352 2.27643 8.96001 2.34393 8.96008H6.40674C6.47352 8.95911 6.53765 8.93378 6.58721 8.88895C6.6367 8.84406 6.66812 8.78272 6.67563 8.71632L7.38371 2.13838H8.26015C8.35764 2.13838 8.44768 2.08643 8.49639 2.00202C8.54509 1.91761 8.5451 1.81359 8.49639 1.72925C8.44767 1.64484 8.35763 1.59283 8.26015 1.59283L8.2602 1.58321ZM3.29776 0.896382H5.44906V1.5735H3.29776V0.896382ZM6.15914 8.4106H2.58768L1.91057 2.13844H6.83619L6.15914 8.4106Z" fill="#E41D1D"/>
<path d="M4.37336 7.77227C4.44571 7.77227 4.51509 7.74351 4.56627 7.6924C4.61744 7.64123 4.64614 7.57185 4.64614 7.4995V3.0498C4.64614 2.95231 4.59419 2.86226 4.50978 2.81356C4.42538 2.76478 4.32135 2.76478 4.23694 2.81356C4.15254 2.86227 4.10059 2.95231 4.10059 3.0498V7.4995C4.10059 7.57185 4.12928 7.64123 4.18046 7.6924C4.23163 7.74351 4.30101 7.77227 4.37336 7.77227H4.37336Z" fill="#E41D1D"/>
<path d="M3.29972 7.77024H3.31131C3.38335 7.76726 3.45123 7.73585 3.50021 7.68292C3.54912 7.63 3.57516 7.55985 3.5725 7.48781L3.40803 3.03812L3.4081 3.03805C3.40661 2.96518 3.37545 2.89599 3.32175 2.84663C3.26798 2.79734 3.19647 2.77214 3.12367 2.77687C3.05163 2.77991 2.98375 2.81133 2.93484 2.86425C2.88587 2.91718 2.85989 2.98733 2.86248 3.05937L3.02695 7.50906C3.03038 7.57922 3.06057 7.64542 3.11135 7.69399C3.16207 7.74251 3.22951 7.76985 3.29972 7.77024L3.29972 7.77024Z" fill="#E41D1D"/>
<path d="M5.43731 7.77027H5.44696C5.51886 7.77189 5.5885 7.7452 5.64096 7.69603C5.69337 7.6468 5.72446 7.57898 5.7275 7.50714L5.89197 3.05744H5.89191C5.89456 2.98541 5.86852 2.91526 5.81962 2.86233C5.77065 2.8094 5.70276 2.77799 5.63072 2.77494C5.55707 2.76737 5.48361 2.79114 5.42836 2.8405C5.37311 2.88979 5.34123 2.96014 5.34052 3.03425L5.17411 7.48395H5.17418C5.17048 7.55695 5.19627 7.6284 5.24576 7.68223C5.29518 7.73606 5.36423 7.7678 5.4373 7.77026L5.43731 7.77027Z" fill="#E41D1D"/>
</svg>
