<svg width="60" height="60" viewBox="0 0 60 60" fill="none" xmlns="http://www.w3.org/2000/svg">
<g clip-path="url(#clip0_1181_74707)">
<path d="M30 60C46.5685 60 60 46.5685 60 30C60 13.4315 46.5685 0 30 0C13.4315 0 0 13.4315 0 30C0 46.5685 13.4315 60 30 60Z" fill="#008083"/>
<path fill-rule="evenodd" clip-rule="evenodd" d="M25.8469 31.74L22.7531 34.9725C22.1963 35.5537 21.6506 36.1406 21.0919 36.7181C20.9981 36.8156 20.865 36.8737 20.7506 36.9506C20.5069 36.9112 20.3194 36.7594 20.2875 36.5381C20.2357 36.2014 20.1895 35.8638 20.1488 35.5256C20.0925 35.0794 19.9556 34.9556 19.5038 34.8994C18.5719 34.7869 17.6419 34.665 16.71 34.5431L14.5837 34.2675C14.16 34.2112 14.0062 33.9075 14.2275 33.5456C14.7375 32.7244 15.2512 31.9069 15.7631 31.0894L18.8944 26.0869C19.0181 25.8844 19.1569 25.7456 19.4231 25.7531C19.5919 25.7569 19.7681 25.7156 19.935 25.6725C20.1337 25.6237 20.2894 25.6837 20.4281 25.815C20.6738 26.0456 20.9231 26.2744 21.1669 26.5069L23.9944 29.19C24.6038 29.7675 25.2187 30.3412 25.8281 30.9187C26.1431 31.215 26.1431 31.4287 25.8469 31.74ZM46.6406 36.0881C46.8169 36.2344 47.0081 36.3731 47.0456 36.6225C47.0925 36.9412 46.965 37.1719 46.695 37.3462C45.1012 38.3775 43.5075 39.4144 41.9137 40.4475L38.8331 42.4444C38.736 42.5059 38.6432 42.5742 38.5556 42.6487C38.478 42.7125 38.4163 42.7935 38.3756 42.8853C38.3349 42.9771 38.3163 43.0772 38.3212 43.1775C38.3363 43.5619 38.3588 43.9462 38.3644 44.3287C38.37 44.7694 38.0456 45.045 37.6031 44.9944C37.4437 44.9733 37.2989 44.8905 37.2 44.7637C36.8294 44.3361 36.4594 43.908 36.09 43.4794C35.6269 42.9431 35.1656 42.4031 34.7006 41.8687C34.6049 41.7731 34.5323 41.6568 34.4884 41.5287C34.4445 41.4007 34.4305 41.2643 34.4475 41.13L34.5112 38.8894C34.5188 38.6269 34.6744 38.4581 34.8844 38.3231L37.4306 36.6956C38.8556 35.7862 40.2844 34.8806 41.7056 33.9619C42.0056 33.7687 42.285 33.7106 42.615 33.8794C42.8588 34.0031 43.1344 34.0256 43.3988 33.9431C43.7944 33.8175 44.0981 33.9281 44.4037 34.1981C45.135 34.8431 45.8944 35.4581 46.6425 36.0881H46.6406ZM32.9569 37.9481C33.0726 38.0612 33.155 38.2039 33.195 38.3606C33.2644 38.7112 33.1256 38.9494 32.7956 39.1087C31.6987 39.6375 30.6038 40.1719 29.4975 40.6837C29.2987 40.7737 29.0494 40.785 28.8225 40.7962C27.9056 40.8375 26.9887 40.8619 26.0719 40.8994C25.53 40.92 24.99 40.9537 24.4913 40.98H24.1238C24.0406 40.9821 23.9579 40.9674 23.8806 40.9367C23.8033 40.9061 23.7329 40.8603 23.6738 40.8019C23.5575 40.695 23.4375 40.5919 23.3231 40.4831C22.6781 39.87 22.0444 39.2456 21.3863 38.6456C21.0188 38.3119 21.0131 37.8637 21.3638 37.5056C22.1531 36.6919 22.9331 35.8706 23.7169 35.0494C24.5625 34.1644 25.4081 33.2756 26.2519 32.3869C26.3159 32.3115 26.3947 32.2501 26.4833 32.2064C26.572 32.1627 26.6687 32.1376 26.7674 32.1327C26.8661 32.1277 26.9648 32.1431 27.0574 32.1778C27.15 32.2125 27.2344 32.2658 27.3056 32.3344L30.6806 35.6887C31.4381 36.4425 32.2031 37.1887 32.9569 37.9481ZM37.6031 22.8562C37.2413 22.2975 37.65 21.525 38.2519 21.4256C39.8606 21.1575 41.4638 20.85 43.0706 20.5706C43.425 20.5087 43.7062 20.6719 43.9012 20.9644C44.2388 21.4706 44.5706 21.9787 44.9044 22.4869C45.6094 23.5556 46.3162 24.6244 47.0137 25.6969C47.1075 25.8412 47.1544 26.0156 47.2238 26.175L47.1825 26.1937C47.171 26.4675 47.0695 26.7298 46.8937 26.94C45.9113 28.26 44.9175 29.5744 43.9369 30.8962C43.8443 31.0135 43.7246 31.1065 43.588 31.167C43.4514 31.2276 43.3022 31.254 43.1531 31.2438C43.0041 31.2336 42.8597 31.1873 42.7326 31.1087C42.6055 31.0302 42.4995 30.9219 42.4237 30.7931C40.9894 28.4119 39.54 26.0381 38.0963 23.6625C37.9331 23.3925 37.7738 23.1187 37.6031 22.8562ZM34.7812 29.4787L34.5 31.9819C34.4212 32.6756 34.3369 33.3656 34.2581 34.0594L33.9806 36.4969C33.9619 36.6675 33.96 36.8419 33.9244 37.0069C33.9056 37.0875 33.8456 37.1906 33.7781 37.2169C33.7106 37.2431 33.5906 37.2056 33.5306 37.155C33.2644 36.9244 33.0112 36.6806 32.7562 36.4387C31.8375 35.5687 30.9244 34.6969 30.0056 33.8306C29.2069 33.075 28.4062 32.325 27.6038 31.575C27.3375 31.3275 27.3356 31.2487 27.5925 30.9806L31.2638 27.1369L33.7706 24.5044L35.0006 23.2106C35.0362 23.1731 35.0662 23.1225 35.1094 23.1075C35.1975 23.0756 35.3062 23.0325 35.3831 23.0569C35.4469 23.0794 35.4769 23.1937 35.4956 23.2256L35.3081 24.8756L35.0662 26.9962L34.7812 29.4787ZM41.9175 31.3912C42.0375 31.5844 42.0563 31.7681 41.925 31.9687C41.7819 32.1938 41.721 32.4614 41.7525 32.7262C41.775 32.9625 41.6775 33.1069 41.4769 33.2325C39.9075 34.2281 38.3456 35.2312 36.7819 36.2325C36.2906 36.5475 35.7994 36.8606 35.3062 37.1719C35.1112 37.2956 34.9106 37.2862 34.8038 37.1287C34.7437 37.0425 34.7362 36.9225 34.7194 36.8625L34.9256 35.3475L35.385 32.0062L35.8913 28.35L36.3844 24.7744L36.5719 23.4431C36.5756 23.4075 36.5775 23.3662 36.5962 23.34C36.645 23.2781 36.6994 23.1862 36.7613 23.175C36.8288 23.1637 36.9338 23.2162 36.9769 23.2744C37.0913 23.4281 37.1831 23.5987 37.2844 23.7637L40.95 29.7937C41.2725 30.3262 41.5913 30.8606 41.9175 31.3894V31.3912ZM34.3181 22.1962C34.3762 22.2337 34.4888 22.2731 34.5488 22.3537C34.6406 22.4775 34.56 22.5937 34.4644 22.6931L33.1894 24.0337L29.4731 27.9225C28.6969 28.7381 27.9244 29.5575 27.1481 30.3712C26.8669 30.6637 26.6419 30.6637 26.3494 30.3862C25.4438 29.5275 24.5381 28.665 23.6306 27.8081C22.7494 26.9756 21.8644 26.145 20.9794 25.3144C20.8612 25.2019 20.7675 25.08 20.7806 24.9075C20.7994 24.6731 20.9344 24.54 21.2025 24.495C21.6919 24.4069 22.1831 24.3206 22.6744 24.2362L27.39 23.4112L32.9587 22.4344L34.3181 22.1962ZM21.6825 23.3812C22.5563 22.7831 23.43 22.1887 24.3056 21.5944L32.7619 15.8344C33.0431 15.6431 33.2212 15.6825 33.3619 15.9862C33.945 17.235 34.5244 18.4856 35.1056 19.7362C35.1806 19.8975 35.2519 20.0606 35.3287 20.2237C35.3906 20.355 35.3494 20.4619 35.2706 20.58C35.1682 20.7248 35.0815 20.88 35.0119 21.0431C34.95 21.1987 34.8563 21.2831 34.6875 21.3131C33.4425 21.5344 32.1994 21.7631 30.9563 21.9844L26.5425 22.7775L21.7238 23.6437C21.6563 23.655 21.5869 23.6437 21.5175 23.6437L21.4763 23.5669C21.5456 23.505 21.6075 23.4337 21.6825 23.3812ZM12.8888 26.2425C12.3375 26.2312 12.0094 25.695 12.2738 25.2019C12.4969 24.7856 12.7444 24.3844 12.9844 23.9775C13.6744 22.7981 14.3681 21.6225 15.0544 20.4431C15.1664 20.2505 15.3283 20.0918 15.5231 19.9837C17.3531 18.9319 19.1794 17.8744 21.0094 16.8206C21.1255 16.7495 21.253 16.6988 21.3863 16.6706C21.5112 16.6459 21.6406 16.6584 21.7585 16.7063C21.8764 16.7543 21.9778 16.8358 22.05 16.9406C22.1299 17.0431 22.1784 17.1665 22.1897 17.2959C22.201 17.4253 22.1746 17.5552 22.1137 17.67C21.8381 18.2587 21.5512 18.8419 21.27 19.4269C20.745 20.4994 20.22 21.57 19.7006 22.6444C19.6514 22.7631 19.5748 22.8685 19.477 22.9519C19.3793 23.0354 19.2631 23.0945 19.1381 23.1244C18.9055 23.1798 18.6928 23.2985 18.5234 23.4672C18.354 23.636 18.2345 23.8482 18.1781 24.0806C18.1496 24.1954 18.0915 24.3006 18.0096 24.3858C17.9277 24.4711 17.8248 24.5333 17.7113 24.5662C16.2075 25.095 14.7056 25.635 13.2037 26.1694C13.1025 26.2069 12.9956 26.2181 12.8906 26.2444L12.8888 26.2425ZM20.6756 22.8187C20.6831 22.7405 20.7047 22.6643 20.7394 22.5937L22.7044 18.2869C23.1131 17.3906 23.5275 16.4962 23.9306 15.5981C24.0244 15.3919 24.1613 15.2887 24.3938 15.2794C25.0069 15.2606 25.62 15.2287 26.2331 15.2044L29.8519 15.0675C30.2756 15.0487 30.7013 15.0206 31.1269 15C31.4306 14.9869 31.6388 15.1706 31.6406 15.4687C31.6537 15.6506 31.5375 15.7687 31.3875 15.8719L30.2288 16.6612L23.3025 21.3731L21.09 22.8806C21.0384 22.9196 20.9831 22.9535 20.925 22.9819C20.7937 23.0381 20.6681 22.9594 20.6756 22.8187ZM18.12 25.9125C17.8144 26.4056 17.505 26.895 17.1975 27.3862C16.0481 29.2237 14.8987 31.0631 13.7475 32.8987C13.7 32.9867 13.6364 33.0649 13.56 33.1294C13.3612 33.2719 13.0969 33.1725 13.0031 32.9231C12.8531 32.5219 12.7106 32.1169 12.5663 31.7137L11.3119 28.185C11.2819 28.0969 11.2613 28.0069 11.25 27.9637C11.2519 27.7256 11.3306 27.6244 11.5538 27.5512C12.2213 27.3356 12.8888 27.1237 13.5563 26.9119L17.3344 25.7119L17.8313 25.5581C17.9494 25.5206 18.0675 25.47 18.165 25.6012C18.2531 25.7194 18.18 25.8169 18.12 25.9125ZM48.3412 30.8044L48.72 32.9719C48.7312 33.0412 48.7388 33.1125 48.75 33.2044C48.7313 33.2981 48.7106 33.4106 48.6806 33.5194L48.1838 35.3119C48.0412 35.8275 47.6325 35.9494 47.22 35.6006C46.3744 34.8881 45.525 34.1756 44.6756 33.4669C44.4825 33.3056 44.4019 33.12 44.4469 32.865C44.5019 32.6111 44.4716 32.3461 44.3606 32.1112C44.2444 31.8806 44.2819 31.6762 44.4338 31.4737C45.1275 30.5437 45.8156 29.61 46.5075 28.68L46.9294 28.11C47.07 27.9169 47.2556 27.8231 47.4919 27.8756C47.7394 27.9319 47.8669 28.1006 47.9081 28.3425L48.3394 30.8044H48.3412ZM34.1588 15.9094L34.1213 15.8306C34.0706 15.7181 34.05 15.5869 34.1644 15.5231C34.2648 15.4781 34.3782 15.4714 34.4831 15.5044C34.6481 15.555 34.7963 15.6487 34.9519 15.7256L41.2556 18.8737L42.375 19.4362C42.5006 19.4981 42.6 19.5712 42.5737 19.7287C42.5475 19.8844 42.4294 19.9181 42.2925 19.9425C40.7775 20.2125 39.2644 20.4862 37.7513 20.7581L37.6031 20.7881C37.56 20.76 37.4775 20.7281 37.425 20.6681C37.2902 20.4986 37.1204 20.36 36.9273 20.262C36.7341 20.164 36.5221 20.1087 36.3056 20.1C36.1369 20.0925 36.0506 19.9931 35.9869 19.8525C35.7206 19.275 35.4488 18.7012 35.1806 18.1256L34.1588 15.9094Z" fill="white"/>
</g>
<defs>
<clipPath id="clip0_1181_74707">
<rect width="60" height="60" fill="white"/>
</clipPath>
</defs>
</svg>
