<svg width="75" height="66" viewBox="0 0 75 66" fill="none" xmlns="http://www.w3.org/2000/svg">
<path d="M39.0297 15.6752C38.8799 16.1776 39.1661 16.7056 39.6681 16.8553L39.7678 16.885L39.7721 16.8801C40.243 16.9652 40.71 16.6832 40.8483 16.2162C42.1091 11.9796 46.0814 9.02005 50.507 9.02005C51.0309 9.02005 51.4558 8.59509 51.4558 8.07116C51.4558 7.5472 51.0309 7.12227 50.507 7.12227C45.0679 7.12227 40.4973 10.7436 39.0297 15.6752ZM39.0297 15.6752L39.1844 15.7214M39.0297 15.6752C39.0297 15.6753 39.0297 15.6753 39.0297 15.6753L39.1844 15.7214M39.1844 15.7214C39.0601 16.1382 39.2975 16.5763 39.7142 16.7006L39.1844 15.7214Z" fill="#008284" stroke="#F9FFF9" stroke-width="0.322847"/>
<path d="M61.5311 46.6567H56.8065C56.3717 46.6567 56.019 46.304 56.019 45.8692C56.019 45.4344 56.3717 45.0818 56.8065 45.0818H61.5311C68.0439 45.0818 73.343 39.7827 73.343 33.2699C73.343 26.7572 68.0439 21.4581 61.5311 21.4581H61.4175C61.1892 21.4581 60.972 21.3591 60.8224 21.1864C60.6728 21.0137 60.6053 20.7848 60.638 20.5587C60.7083 20.0682 60.7437 19.5755 60.7437 19.0957C60.7437 13.4514 56.1511 8.85874 50.5067 8.85874C48.3108 8.85874 46.2167 9.54496 44.4505 10.8437C44.0624 11.1289 43.5112 11.0023 43.2868 10.5754C38.2848 1.05057 25.2201 -0.22851 18.4467 8.05724C15.5933 11.5479 14.4722 16.0887 15.3706 20.5143C15.4696 21.0031 15.0955 21.4587 14.5989 21.4587H14.2833C7.77053 21.4587 2.47147 26.7578 2.47147 33.2705C2.47147 39.7833 7.77053 45.0824 14.2833 45.0824H19.008C19.4428 45.0824 19.7954 45.435 19.7954 45.8698C19.7954 46.3046 19.4428 46.6573 19.008 46.6573H14.2833C6.90197 46.6573 0.896484 40.6518 0.896484 33.2705C0.896484 26.0962 6.5695 20.2217 13.6651 19.8978C12.9986 15.3063 14.2732 10.6749 17.2272 7.06055C24.4791 -1.81125 38.3768 -0.816834 44.2517 9.07587C46.1259 7.90087 48.2705 7.28446 50.5064 7.28446C57.3449 7.28446 62.7638 13.1049 62.2896 19.9051C69.3199 20.2994 74.9176 26.1429 74.9176 33.2699C74.9176 40.6518 68.9121 46.6567 61.5308 46.6567L61.5311 46.6567Z" fill="#008284"/>
<path d="M17.9538 45.4244C17.9538 56.3689 26.8576 65.2725 37.8019 65.2725C48.7463 65.2725 57.6499 56.3687 57.6499 45.4244C57.6499 34.48 48.7463 25.5764 37.8019 25.5764C26.8574 25.5764 17.9538 34.4801 17.9538 45.4244ZM19.8519 45.4244C19.8519 35.5271 27.9044 27.4745 37.8019 27.4745C47.6992 27.4745 55.7518 35.527 55.7518 45.4244C55.7518 55.3217 47.6992 63.3744 37.8019 63.3744C27.9046 63.3744 19.8519 55.3219 19.8519 45.4244Z" fill="#008284" stroke="#F9FFF9" stroke-width="0.322847"/>
<path d="M37.4235 53.3495C37.4235 53.757 37.754 54.0875 38.1615 54.0875C38.5689 54.0875 38.8994 53.7575 38.8994 53.3495V38.3602C38.8994 37.9527 38.5689 37.6223 38.1615 37.6223C37.754 37.6223 37.4235 37.9527 37.4235 38.3602V53.3495Z" fill="#008284" stroke="#008284" stroke-width="0.322847"/>
<path d="M38.1613 39.4051L34.0712 43.4952C33.7832 43.7837 33.3157 43.7836 33.0274 43.4954C32.7392 43.2071 32.7392 42.74 33.0274 42.4517L37.6394 37.8398L38.1613 39.4051ZM38.1613 39.4051L42.2515 43.4953C42.3954 43.6393 42.5848 43.7115 42.7733 43.7115L38.1613 39.4051ZM42.7733 43.7115C42.9615 43.7115 43.151 43.6399 43.2952 43.4953L42.7733 43.7115Z" fill="#008284" stroke="#008284" stroke-width="0.322847"/>
</svg>
