<svg width="18" height="17" viewBox="0 0 18 17" fill="none" xmlns="http://www.w3.org/2000/svg">
<path d="M0.515491 12.1429H11.0559C11.1236 12.1429 11.1907 12.1303 11.2533 12.1059C11.3158 12.0815 11.3727 12.0456 11.4206 12.0004C11.4684 11.9552 11.5064 11.9015 11.5323 11.8424C11.5582 11.7833 11.5715 11.72 11.5714 11.656V10.2011C11.5715 10.1372 11.5582 10.0739 11.5323 10.0148C11.5064 9.95568 11.4684 9.90199 11.4206 9.85677C11.3727 9.81155 11.3158 9.77569 11.2533 9.75124C11.1907 9.72679 11.1236 9.71424 11.0559 9.71429H0.515491C0.447781 9.71424 0.380725 9.72679 0.318159 9.75124C0.255593 9.77569 0.198744 9.81155 0.150866 9.85677C0.102988 9.90199 0.0650191 9.95568 0.039132 10.0148C0.0132448 10.0739 -5.26798e-05 10.1372 1.56839e-07 10.2011V11.656C-5.26798e-05 11.72 0.0132448 11.7833 0.039132 11.8424C0.0650191 11.9015 0.102988 11.9552 0.150866 12.0004C0.198744 12.0456 0.255593 12.0815 0.318159 12.1059C0.380725 12.1303 0.447781 12.1429 0.515491 12.1429ZM0.515491 2.42857H11.0559C11.1236 2.42862 11.1907 2.41606 11.2533 2.39161C11.3158 2.36716 11.3727 2.33131 11.4206 2.28609C11.4684 2.24087 11.5064 2.18718 11.5323 2.12809C11.5582 2.069 11.5715 2.00567 11.5714 1.94172V0.486853C11.5715 0.422904 11.5582 0.359574 11.5323 0.300483C11.5064 0.241393 11.4684 0.187703 11.4206 0.142485C11.3727 0.0972663 11.3158 0.0614069 11.2533 0.0369579C11.1907 0.0125089 11.1236 -4.97531e-05 11.0559 1.48127e-07H0.515491C0.447781 -4.97531e-05 0.380725 0.0125089 0.318159 0.0369579C0.255593 0.0614069 0.198744 0.0972663 0.150866 0.142485C0.102988 0.187703 0.0650191 0.241393 0.039132 0.300483C0.0132448 0.359574 -5.26798e-05 0.422904 1.56839e-07 0.486853V1.94172C-5.26798e-05 2.00567 0.0132448 2.069 0.039132 2.12809C0.0650191 2.18718 0.102988 2.24087 0.150866 2.28609C0.198744 2.33131 0.255593 2.36716 0.318159 2.39161C0.380725 2.41606 0.447781 2.42862 0.515491 2.42857ZM17.3571 4.85714H0.642857C0.472361 4.85714 0.308848 4.92111 0.188289 5.03497C0.0677296 5.14883 1.56839e-07 5.30326 1.56839e-07 5.46429V6.67857C1.56839e-07 6.8396 0.0677296 6.99403 0.188289 7.10789C0.308848 7.22175 0.472361 7.28571 0.642857 7.28571H17.3571C17.5276 7.28571 17.6912 7.22175 17.8117 7.10789C17.9323 6.99403 18 6.8396 18 6.67857V5.46429C18 5.30326 17.9323 5.14883 17.8117 5.03497C17.6912 4.92111 17.5276 4.85714 17.3571 4.85714ZM17.3571 14.5714H0.642857C0.472361 14.5714 0.308848 14.6354 0.188289 14.7493C0.0677296 14.8631 1.56839e-07 15.0175 1.56839e-07 15.1786V16.3929C1.56839e-07 16.5539 0.0677296 16.7083 0.188289 16.8222C0.308848 16.936 0.472361 17 0.642857 17H17.3571C17.5276 17 17.6912 16.936 17.8117 16.8222C17.9323 16.7083 18 16.5539 18 16.3929V15.1786C18 15.0175 17.9323 14.8631 17.8117 14.7493C17.6912 14.6354 17.5276 14.5714 17.3571 14.5714Z" fill="#008083"/>
</svg>
