<svg width="24" height="26" viewBox="0 0 24 26" fill="none" xmlns="http://www.w3.org/2000/svg">
<path d="M3 7C3 5.89543 3.89543 5 5 5H8.27924C8.70967 5 9.09181 5.27543 9.22792 5.68377L10.7257 10.1772C10.8831 10.6493 10.6694 11.1653 10.2243 11.3879L7.96701 12.5165C9.06925 14.9612 11.0388 16.9308 13.4835 18.033L14.6121 15.7757C14.8347 15.3306 15.3507 15.1169 15.8228 15.2743L20.3162 16.7721C20.7246 16.9082 21 17.2903 21 17.7208V21C21 22.1046 20.1046 23 19 23H18C9.71573 23 3 16.2843 3 8V7Z" stroke="#006766" stroke-width="2" stroke-linecap="round" stroke-linejoin="round"/>
</svg>
