<svg width="56" height="56" viewBox="0 0 56 56" fill="none" xmlns="http://www.w3.org/2000/svg">
<rect x="4" y="4" width="48" height="48" rx="24" fill="#B1D7D8"/>
<path d="M30.5 26C30.5 25.8674 30.4473 25.7402 30.3536 25.6464C30.2598 25.5527 30.1326 25.5 30 25.5C29.8674 25.5 29.7402 25.5527 29.6464 25.6464C29.5527 25.7402 29.5 25.8674 29.5 26V32C29.5 32.1326 29.5527 32.2598 29.6464 32.3536C29.7402 32.4473 29.8674 32.5 30 32.5C30.1326 32.5 30.2598 32.4473 30.3536 32.3536C30.4473 32.2598 30.5 32.1326 30.5 32V26ZM27.5 25.5C27.6326 25.5 27.7598 25.5527 27.8536 25.6464C27.9473 25.7402 28 25.8674 28 26V32C28 32.1326 27.9473 32.2598 27.8536 32.3536C27.7598 32.4473 27.6326 32.5 27.5 32.5C27.3674 32.5 27.2402 32.4473 27.1464 32.3536C27.0527 32.2598 27 32.1326 27 32V26C27 25.8674 27.0527 25.7402 27.1464 25.6464C27.2402 25.5527 27.3674 25.5 27.5 25.5ZM25.5 26C25.5 25.8674 25.4473 25.7402 25.3536 25.6464C25.2598 25.5527 25.1326 25.5 25 25.5C24.8674 25.5 24.7402 25.5527 24.6464 25.6464C24.5527 25.7402 24.5 25.8674 24.5 26V32C24.5 32.1326 24.5527 32.2598 24.6464 32.3536C24.7402 32.4473 24.8674 32.5 25 32.5C25.1326 32.5 25.2598 32.4473 25.3536 32.3536C25.4473 32.2598 25.5 32.1326 25.5 32V26ZM24.5 20C23.837 20 23.2011 20.2634 22.7322 20.7322C22.2634 21.2011 22 21.837 22 22.5V34.25C22 35.216 22.784 36 23.75 36H31.25C31.7141 36 32.1592 35.8156 32.4874 35.4874C32.8156 35.1592 33 34.7141 33 34.25V33H33.5C34.163 33 34.7989 32.7366 35.2678 32.2678C35.7366 31.7989 36 31.163 36 30.5V25.5C36 24.837 35.7366 24.2011 35.2678 23.7322C34.7989 23.2634 34.163 23 33.5 23H33V22.5C33 21.837 32.7366 21.2011 32.2678 20.7322C31.7989 20.2634 31.163 20 30.5 20H24.5ZM33 24H33.5C33.8978 24 34.2794 24.158 34.5607 24.4393C34.842 24.7206 35 25.1022 35 25.5V30.5C35 30.8978 34.842 31.2794 34.5607 31.5607C34.2794 31.842 33.8978 32 33.5 32H33V24ZM23 22.5C23 22.1022 23.158 21.7206 23.4393 21.4393C23.7206 21.158 24.1022 21 24.5 21H30.5C30.8978 21 31.2794 21.158 31.5607 21.4393C31.842 21.7206 32 22.1022 32 22.5V23H23V22.5ZM23 24H32V34.25C32 34.4489 31.921 34.6397 31.7803 34.7803C31.6397 34.921 31.4489 35 31.25 35H23.75C23.5511 35 23.3603 34.921 23.2197 34.7803C23.079 34.6397 23 34.4489 23 34.25V24Z" fill="#006766"/>
<rect x="4" y="4" width="48" height="48" rx="24" stroke="#E0EFEF" stroke-width="8"/>
</svg>
