<svg width="56" height="56" viewBox="0 0 56 56" fill="none" xmlns="http://www.w3.org/2000/svg">
<rect x="4" y="4" width="48" height="48" rx="24" fill="#B1D7D8"/>
<path d="M32 42H29C28.4697 41.9995 27.9613 41.7886 27.5864 41.4136C27.2114 41.0387 27.0005 40.5303 27 40V35H29V40H32V35H34V31C33.9997 30.7349 33.8943 30.4807 33.7068 30.2932C33.5193 30.1057 33.2651 30.0003 33 30H24.28L22.28 24H16C15.7349 24.0003 15.4807 24.1057 15.2932 24.2932C15.1057 24.4807 15.0003 24.7349 15 25V31H17V40H21V33H23V40C22.9995 40.5303 22.7886 41.0387 22.4136 41.4136C22.0387 41.7886 21.5303 41.9995 21 42H17C16.4697 41.9995 15.9613 41.7886 15.5864 41.4136C15.2114 41.0387 15.0005 40.5303 15 40V33C14.4697 32.9995 13.9613 32.7886 13.5864 32.4136C13.2114 32.0387 13.0005 31.5303 13 31V25C13.0008 24.2046 13.3171 23.442 13.8796 22.8796C14.442 22.3171 15.2046 22.0008 16 22H22.28C22.6997 21.9997 23.1088 22.1317 23.4494 22.377C23.7899 22.6224 24.0444 22.9688 24.177 23.367L25.72 28H33C33.7954 28.0008 34.558 28.3171 35.1204 28.8796C35.6829 29.442 35.9992 30.2046 36 31V35C35.9995 35.5303 35.7886 36.0387 35.4136 36.4136C35.0387 36.7886 34.5303 36.9995 34 37V40C33.9995 40.5303 33.7886 41.0387 33.4136 41.4136C33.0387 41.7886 32.5303 41.9995 32 42ZM40 42H38V31H41V25C40.9997 24.7349 40.8943 24.4807 40.7068 24.2932C40.5193 24.1057 40.2651 24.0003 40 24H36V22H40C40.7954 22.0008 41.558 22.3171 42.1204 22.8796C42.6829 23.442 42.9992 24.2046 43 25V31C42.9995 31.5303 42.7886 32.0387 42.4136 32.4136C42.0387 32.7886 41.5303 32.9995 41 33H40V42ZM19 21C18.2089 21 17.4355 20.7654 16.7777 20.3259C16.1199 19.8864 15.6072 19.2616 15.3045 18.5307C15.0017 17.7998 14.9225 16.9956 15.0769 16.2196C15.2312 15.4437 15.6122 14.731 16.1716 14.1716C16.731 13.6122 17.4437 13.2312 18.2196 13.0769C18.9956 12.9225 19.7998 13.0017 20.5307 13.3045C21.2616 13.6072 21.8864 14.1199 22.3259 14.7777C22.7654 15.4355 23 16.2089 23 17C22.9987 18.0605 22.5768 19.0771 21.827 19.827C21.0771 20.5768 20.0605 20.9987 19 21ZM19 15C18.6044 15 18.2178 15.1173 17.8889 15.3371C17.56 15.5568 17.3036 15.8692 17.1522 16.2346C17.0009 16.6001 16.9613 17.0022 17.0384 17.3902C17.1156 17.7781 17.3061 18.1345 17.5858 18.4142C17.8655 18.6939 18.2219 18.8844 18.6098 18.9616C18.9978 19.0387 19.3999 18.9991 19.7654 18.8478C20.1308 18.6964 20.4432 18.44 20.6629 18.1111C20.8827 17.7822 21 17.3956 21 17C20.9995 16.4697 20.7886 15.9613 20.4136 15.5864C20.0387 15.2114 19.5303 15.0005 19 15ZM37 21C36.2089 21 35.4355 20.7654 34.7777 20.3259C34.1199 19.8864 33.6072 19.2616 33.3045 18.5307C33.0017 17.7998 32.9225 16.9956 33.0769 16.2196C33.2312 15.4437 33.6122 14.731 34.1716 14.1716C34.731 13.6122 35.4437 13.2312 36.2196 13.0769C36.9956 12.9225 37.7998 13.0017 38.5307 13.3045C39.2616 13.6072 39.8864 14.1199 40.3259 14.7777C40.7654 15.4355 41 16.2089 41 17C40.9987 18.0605 40.5768 19.0771 39.827 19.827C39.0771 20.5768 38.0605 20.9987 37 21ZM37 15C36.6044 15 36.2178 15.1173 35.8889 15.3371C35.56 15.5568 35.3036 15.8692 35.1522 16.2346C35.0009 16.6001 34.9613 17.0022 35.0384 17.3902C35.1156 17.7781 35.3061 18.1345 35.5858 18.4142C35.8655 18.6939 36.2219 18.8844 36.6098 18.9616C36.9978 19.0387 37.3999 18.9991 37.7654 18.8478C38.1308 18.6964 38.4432 18.44 38.6629 18.1111C38.8827 17.7822 39 17.3956 39 17C38.9995 16.4697 38.7886 15.9613 38.4136 15.5864C38.0387 15.2114 37.5303 15.0005 37 15Z" fill="#006766"/>
<path d="M30.5 27C29.8078 27 29.1311 26.7947 28.5555 26.4101C27.9799 26.0256 27.5313 25.4789 27.2664 24.8394C27.0015 24.1999 26.9322 23.4961 27.0673 22.8172C27.2023 22.1383 27.5356 21.5146 28.0251 21.0251C28.5146 20.5356 29.1383 20.2023 29.8172 20.0673C30.4961 19.9322 31.1999 20.0015 31.8394 20.2664C32.4789 20.5313 33.0256 20.9799 33.4101 21.5555C33.7947 22.1311 34 22.8078 34 23.5C33.9989 24.4279 33.6299 25.3176 32.9737 25.9737C32.3176 26.6299 31.4279 26.9989 30.5 27ZM30.5 22C30.2033 22 29.9133 22.088 29.6666 22.2528C29.42 22.4176 29.2277 22.6519 29.1142 22.926C29.0007 23.2001 28.9709 23.5017 29.0288 23.7926C29.0867 24.0836 29.2296 24.3509 29.4393 24.5607C29.6491 24.7704 29.9164 24.9133 30.2074 24.9712C30.4983 25.0291 30.7999 24.9994 31.074 24.8858C31.3481 24.7723 31.5824 24.58 31.7472 24.3334C31.912 24.0867 32 23.7967 32 23.5C31.9995 23.1023 31.8413 22.7211 31.5601 22.4399C31.2789 22.1587 30.8977 22.0005 30.5 22Z" fill="#006766"/>
<rect x="4" y="4" width="48" height="48" rx="24" stroke="#E0EFEF" stroke-width="8"/>
</svg>
