<svg width="24" height="24" viewBox="0 0 24 24" fill="none" xmlns="http://www.w3.org/2000/svg">
<g clip-path="url(#clip0_777_72875)">
<path d="M7.2 8.8V8C6.98783 8 6.78434 8.08429 6.63431 8.23431C6.48429 8.38434 6.4 8.58783 6.4 8.8H7.2ZM7.2 10.4L7.7664 10.9664L8 10.7312V10.4H7.2ZM10.4 20.8H11.2V20.4688L10.9664 20.2336L10.4 20.8ZM8.8 19.2H8V19.5312L8.2336 19.7664L8.8 19.2ZM8.8 16.8H9.6V16.4688L9.3664 16.2336L8.8 16.8ZM7.2 15.2H6.4V15.5312L6.6336 15.7664L7.2 15.2ZM7.2 13.6V12.8C6.98783 12.8 6.78434 12.8843 6.63431 13.0343C6.48429 13.1843 6.4 13.3878 6.4 13.6H7.2ZM14.4 0.8V4H16V0.8H14.4ZM13.6 4.8H12V6.4H13.6V4.8ZM8.8 8H7.2V9.6H8.8V8ZM6.4 8.8V10.4H8V8.8H6.4ZM6.6336 9.8336L6.1664 10.3024L7.2976 11.4336L7.7664 10.9664L6.6336 9.8336ZM5.0336 10.3024L2.1664 7.4336L1.0336 8.5664L3.904 11.4336L5.0352 10.3024H5.0336ZM9.6 7.2C9.6 7.41217 9.51571 7.61566 9.36569 7.76569C9.21566 7.91571 9.01217 8 8.8 8V9.6C9.43652 9.6 10.047 9.34714 10.4971 8.89706C10.9471 8.44697 11.2 7.83652 11.2 7.2H9.6ZM12 4.8C11.3635 4.8 10.753 5.05286 10.3029 5.50294C9.85286 5.95303 9.6 6.56348 9.6 7.2H11.2C11.2 6.98783 11.2843 6.78434 11.4343 6.63431C11.5843 6.48429 11.7878 6.4 12 6.4V4.8ZM6.1664 10.3024C6.09209 10.3769 6.00381 10.4376 5.90661 10.4779C5.80942 10.5183 5.70523 10.539 5.6 10.539C5.49477 10.539 5.39058 10.5183 5.29339 10.4779C5.19619 10.4376 5.10791 10.3769 5.0336 10.3024L3.9024 11.4336C4.12528 11.6566 4.38992 11.8335 4.6812 11.9543C4.97249 12.075 5.2847 12.1371 5.6 12.1371C5.9153 12.1371 6.22751 12.075 6.5188 11.9543C6.81008 11.8335 7.07472 11.6566 7.2976 11.4336L6.1664 10.3024ZM14.4 4C14.4 4.21217 14.3157 4.41566 14.1657 4.56569C14.0157 4.71571 13.8122 4.8 13.6 4.8V6.4C14.2365 6.4 14.847 6.14714 15.2971 5.69706C15.7471 5.24697 16 4.63652 16 4H14.4ZM11.2 23.2V20.8H9.6V23.2H11.2ZM10.9664 20.2336L9.3664 18.6336L8.2336 19.7664L9.8336 21.3664L10.9664 20.2336ZM9.6 19.2V16.8H8V19.2H9.6ZM9.3664 16.2336L7.7664 14.6336L6.6336 15.7664L8.2336 17.3664L9.3664 16.2336ZM8 15.2V13.6H6.4V15.2H8ZM7.2 14.4H13.6V12.8H7.2V14.4ZM14.4 15.2V16.2672H16V15.2H14.4ZM17.3328 19.2H21.6V17.6H17.3328V19.2ZM16 17.8672C16 18.6032 16.5968 19.2 17.3328 19.2V17.6C17.48 17.6 17.6 17.72 17.6 17.8672H16ZM15.7328 17.6C15.88 17.6 16 17.72 16 17.8672H17.6C17.6 16.8352 16.7648 16 15.7328 16V17.6ZM14.4 16.2672C14.4 17.0032 14.9968 17.6 15.7328 17.6V16C15.88 16 16 16.12 16 16.2672H14.4ZM13.6 14.4C13.8122 14.4 14.0157 14.4843 14.1657 14.6343C14.3157 14.7843 14.4 14.9878 14.4 15.2H16C16 14.5635 15.7471 13.953 15.2971 13.5029C14.847 13.0529 14.2365 12.8 13.6 12.8V14.4ZM12 22.4C9.24175 22.4 6.59647 21.3043 4.64609 19.3539C2.69571 17.4035 1.6 14.7583 1.6 12H0C0 15.1826 1.26428 18.2348 3.51472 20.4853C5.76516 22.7357 8.8174 24 12 24V22.4ZM22.4 12C22.4 13.3657 22.131 14.7181 21.6083 15.9799C21.0857 17.2417 20.3196 18.3882 19.3539 19.3539C18.3882 20.3196 17.2417 21.0857 15.9799 21.6083C14.7181 22.131 13.3657 22.4 12 22.4V24C15.1826 24 18.2348 22.7357 20.4853 20.4853C22.7357 18.2348 24 15.1826 24 12H22.4ZM12 1.6C13.3657 1.6 14.7181 1.869 15.9799 2.39165C17.2417 2.9143 18.3882 3.68036 19.3539 4.64609C20.3196 5.61182 21.0857 6.75831 21.6083 8.02009C22.131 9.28188 22.4 10.6343 22.4 12H24C24 8.8174 22.7357 5.76516 20.4853 3.51472C18.2348 1.26428 15.1826 0 12 0V1.6ZM12 0C8.8174 0 5.76516 1.26428 3.51472 3.51472C1.26428 5.76516 0 8.8174 0 12H1.6C1.6 9.24175 2.69571 6.59647 4.64609 4.64609C6.59647 2.69571 9.24175 1.6 12 1.6V0Z" fill="#006766"/>
</g>
<defs>
<clipPath id="clip0_777_72875">
<rect width="24" height="24" fill="white"/>
</clipPath>
</defs>
</svg>
