<svg width="56" height="56" viewBox="0 0 56 56" fill="none" xmlns="http://www.w3.org/2000/svg">
<rect x="4" y="4" width="48" height="48" rx="24" fill="#B1D7D8"/>
<g clip-path="url(#clip0_275_72214)">
<path d="M41.8211 20.3467C41.7615 19.9681 41.5883 19.6167 41.3243 19.3389C41.0604 19.0611 40.7183 18.87 40.3433 18.7911L35.7778 17.7878C35.2882 17.681 34.7813 17.6806 34.2916 17.7866C33.8018 17.8926 33.3405 18.1025 32.9389 18.4022L19.4444 28.2333L15.6644 28.0778C15.3606 28.0669 15.061 28.152 14.8083 28.3211C14.5556 28.4902 14.3625 28.7346 14.2566 29.0196C14.1507 29.3046 14.1373 29.6158 14.2183 29.9088C14.2993 30.2019 14.4705 30.462 14.7078 30.6522L18.5967 33.7089C19.0633 34.2767 19.3744 34.1678 27.0978 29.96L27.8211 37.2867C27.8331 37.4865 27.9016 37.6789 28.0187 37.8413C28.1357 38.0038 28.2964 38.1297 28.4822 38.2044C28.6159 38.2573 28.7585 38.2837 28.9022 38.2822C29.1915 38.2734 29.4678 38.1601 29.68 37.9633L31.5389 36.2678C31.724 36.0963 31.8493 35.8701 31.8967 35.6222L33.6 26.3667C36.3767 24.8111 39.0055 23.3489 40.88 22.2833C41.2153 22.0947 41.4851 21.8082 41.6533 21.4621C41.8215 21.1161 41.88 20.7269 41.8211 20.3467ZM40.11 20.93C38.1655 22.0344 35.4433 23.5822 32.5189 25.1844L32.2 25.3633L30.3878 35.2178L29.2444 36.26L28.3889 27.4711L27.3544 28C21.7778 31.1111 19.9189 32.0133 19.2811 32.2933L15.9367 29.6411L19.8878 29.8122L33.8878 19.6544C34.1078 19.4899 34.3601 19.3737 34.6282 19.3134C34.8962 19.2531 35.174 19.25 35.4433 19.3044L39.9933 20.2844C40.0634 20.2972 40.1277 20.3319 40.1766 20.3837C40.2256 20.4355 40.2567 20.5015 40.2655 20.5722C40.2816 20.6407 40.2751 20.7124 40.247 20.7769C40.219 20.8413 40.171 20.895 40.11 20.93Z" fill="#006766"/>
<path d="M19.4444 23.7533L22.2133 24.5311L23.4888 23.6056L20.3777 22.7033L21.7777 21.8478L26.0322 21.7233L27.8211 20.4244L21.7777 20.6111C21.5872 20.6008 21.3979 20.6468 21.2333 20.7433L19.1877 21.9333C19.0186 22.0335 18.8829 22.1815 18.7978 22.3587C18.7127 22.5359 18.6819 22.7343 18.7093 22.9289C18.7368 23.1235 18.8212 23.3057 18.952 23.4524C19.0829 23.5991 19.2542 23.7038 19.4444 23.7533Z" fill="#006766"/>
</g>
<rect x="4" y="4" width="48" height="48" rx="24" stroke="#E8FEFF" stroke-width="8"/>
<defs>
<clipPath id="clip0_275_72214">
<rect width="28" height="28" fill="white" transform="translate(14 14)"/>
</clipPath>
</defs>
</svg>
