<svg width="196" height="268" viewBox="0 0 196 268" fill="none" xmlns="http://www.w3.org/2000/svg">
<line y1="-1" x2="8.18293" y2="-1" transform="matrix(0.342413 -0.939549 0.939835 0.341627 134.293 8.58282)" stroke="#052A24" stroke-width="2"/>
<line y1="-1" x2="8.18435" y2="-1" transform="matrix(0.500488 -0.865743 0.866307 0.499512 151.756 8.32751)" stroke="#052A24" stroke-width="2"/>
<line y1="-1" x2="8.18609" y2="-1" transform="matrix(0.643278 -0.765632 0.766456 0.642297 169.311 8.07159)" stroke="#052A24" stroke-width="2"/>
<line y1="-1" x2="8.18794" y2="-1" transform="matrix(0.766456 -0.642297 0.643278 0.765632 186.985 7.56036)" stroke="#052A24" stroke-width="2"/>
<line y1="-1" x2="8.18794" y2="-1" transform="matrix(-0.766456 -0.642297 0.643278 -0.765632 12.0701 7.56036)" stroke="#052A24" stroke-width="2"/>
<line y1="-1" x2="8.18609" y2="-1" transform="matrix(-0.643278 -0.765632 0.766456 -0.642297 29.7463 8.07159)" stroke="#052A24" stroke-width="2"/>
<line y1="-1" x2="8.18435" y2="-1" transform="matrix(-0.500488 -0.865743 0.866307 -0.499512 47.3018 8.32751)" stroke="#052A24" stroke-width="2"/>
<line y1="-1" x2="8.18293" y2="-1" transform="matrix(-0.342413 -0.939549 0.939835 -0.341627 64.7646 8.58282)" stroke="#052A24" stroke-width="2"/>
<line y1="-1" x2="8.182" y2="-1" transform="matrix(-0.173867 -0.984769 0.984846 -0.173429 82.1633 8.83881)" stroke="#052A24" stroke-width="2"/>
<line x1="98.5287" y1="8.83881" x2="98.5287" y2="0.657124" stroke="#052A24" stroke-width="2"/>
<line y1="-1" x2="8.182" y2="-1" transform="matrix(0.173867 -0.984769 0.984846 0.173429 116.894 8.83881)" stroke="#052A24" stroke-width="2"/>
<line y1="-1" x2="8.18293" y2="-1" transform="matrix(0.342413 -0.939549 0.939835 0.341627 115.861 22.901)" stroke="#052A24" stroke-width="2"/>
<line y1="-1" x2="8.18435" y2="-1" transform="matrix(0.500488 -0.865743 0.866307 0.499512 133.322 22.6451)" stroke="#052A24" stroke-width="2"/>
<line y1="-1" x2="8.18609" y2="-1" transform="matrix(0.643278 -0.765632 0.766456 0.642297 150.877 22.3898)" stroke="#052A24" stroke-width="2"/>
<line y1="-1" x2="8.18794" y2="-1" transform="matrix(0.766456 -0.642297 0.643278 0.765632 168.553 21.8785)" stroke="#052A24" stroke-width="2"/>
<line y1="-1" x2="8.18967" y2="-1" transform="matrix(0.866307 -0.499512 0.500488 0.865743 186.371 21.1113)" stroke="#052A24" stroke-width="2"/>
<line y1="-1" x2="8.18609" y2="-1" transform="matrix(-0.643278 -0.765632 0.766456 -0.642297 11.3148 22.3898)" stroke="#052A24" stroke-width="2"/>
<line y1="-1" x2="8.18435" y2="-1" transform="matrix(-0.500488 -0.865743 0.866307 -0.499512 28.8702 22.6451)" stroke="#052A24" stroke-width="2"/>
<line y1="-1" x2="8.18293" y2="-1" transform="matrix(-0.342413 -0.939549 0.939835 -0.341627 46.3306 22.901)" stroke="#052A24" stroke-width="2"/>
<line y1="-1" x2="8.182" y2="-1" transform="matrix(-0.173867 -0.984769 0.984846 -0.173429 63.7292 23.1563)" stroke="#052A24" stroke-width="2"/>
<line x1="80.0946" y1="23.1563" x2="80.0946" y2="14.9746" stroke="#052A24" stroke-width="2"/>
<line y1="-1" x2="8.182" y2="-1" transform="matrix(0.173867 -0.984769 0.984846 0.173429 98.4624 23.1563)" stroke="#052A24" stroke-width="2"/>
<line y1="-1" x2="8.18293" y2="-1" transform="matrix(0.342413 -0.939549 0.939835 0.341627 97.427 37.2192)" stroke="#052A24" stroke-width="2"/>
<line y1="-1" x2="8.18435" y2="-1" transform="matrix(0.500488 -0.865743 0.866307 0.499512 114.89 36.9633)" stroke="#052A24" stroke-width="2"/>
<line y1="-1" x2="8.18609" y2="-1" transform="matrix(0.643278 -0.765632 0.766456 0.642297 132.445 36.7073)" stroke="#052A24" stroke-width="2"/>
<line y1="-1" x2="8.18794" y2="-1" transform="matrix(0.766456 -0.642297 0.643278 0.765632 150.122 36.1961)" stroke="#052A24" stroke-width="2"/>
<line y1="-1" x2="8.18967" y2="-1" transform="matrix(0.866307 -0.499512 0.500488 0.865743 167.939 35.4289)" stroke="#052A24" stroke-width="2"/>
<line y1="-1" x2="8.19109" y2="-1" transform="matrix(0.939835 -0.341627 0.342413 0.939549 185.918 34.9177)" stroke="#052A24" stroke-width="2"/>
<line y1="-1" x2="8.18435" y2="-1" transform="matrix(-0.500488 -0.865743 0.866307 -0.499512 10.4362 36.9633)" stroke="#052A24" stroke-width="2"/>
<line y1="-1" x2="8.18293" y2="-1" transform="matrix(-0.342413 -0.939549 0.939835 -0.341627 27.899 37.2192)" stroke="#052A24" stroke-width="2"/>
<line y1="-1" x2="8.182" y2="-1" transform="matrix(-0.173867 -0.984769 0.984846 -0.173429 45.2978 37.4745)" stroke="#052A24" stroke-width="2"/>
<line x1="61.6631" y1="37.4745" x2="61.6631" y2="29.2929" stroke="#052A24" stroke-width="2"/>
<line y1="-1" x2="8.182" y2="-1" transform="matrix(0.173867 -0.984769 0.984846 0.173429 80.0283 37.4745)" stroke="#052A24" stroke-width="2"/>
<line y1="-1" x2="8.18293" y2="-1" transform="matrix(0.342413 -0.939549 0.939835 0.341627 78.9956 51.5368)" stroke="#052A24" stroke-width="2"/>
<line y1="-1" x2="8.18435" y2="-1" transform="matrix(0.500488 -0.865743 0.866307 0.499512 96.4559 51.2815)" stroke="#052A24" stroke-width="2"/>
<line y1="-1" x2="8.18609" y2="-1" transform="matrix(0.643278 -0.765632 0.766456 0.642297 114.011 51.0255)" stroke="#052A24" stroke-width="2"/>
<line y1="-1" x2="8.18794" y2="-1" transform="matrix(0.766456 -0.642297 0.643278 0.765632 131.688 50.5143)" stroke="#052A24" stroke-width="2"/>
<line y1="-1" x2="8.18967" y2="-1" transform="matrix(0.866307 -0.499512 0.500488 0.865743 149.508 49.7471)" stroke="#052A24" stroke-width="2"/>
<line y1="-1" x2="8.19109" y2="-1" transform="matrix(0.939835 -0.341627 0.342413 0.939549 167.487 49.2358)" stroke="#052A24" stroke-width="2"/>
<line y1="-1" x2="8.19202" y2="-1" transform="matrix(0.984846 -0.173429 0.173867 0.984769 185.644 48.4686)" stroke="#052A24" stroke-width="2"/>
<line y1="-1" x2="8.18293" y2="-1" transform="matrix(-0.342413 -0.939549 0.939835 -0.341627 9.46497 51.5368)" stroke="#052A24" stroke-width="2"/>
<line y1="-1" x2="8.182" y2="-1" transform="matrix(-0.173867 -0.984769 0.984846 -0.173429 26.8636 51.7927)" stroke="#052A24" stroke-width="2"/>
<line x1="43.229" y1="51.7927" x2="43.229" y2="43.611" stroke="#052A24" stroke-width="2"/>
<line y1="-1" x2="8.182" y2="-1" transform="matrix(0.173867 -0.984769 0.984846 0.173429 61.5968 51.7927)" stroke="#052A24" stroke-width="2"/>
<line y1="-1" x2="8.18293" y2="-1" transform="matrix(0.342413 -0.939549 0.939835 0.341627 60.5614 65.855)" stroke="#052A24" stroke-width="2"/>
<line y1="-1" x2="8.18435" y2="-1" transform="matrix(0.500488 -0.865743 0.866307 0.499512 78.0244 65.599)" stroke="#052A24" stroke-width="2"/>
<line y1="-1" x2="8.18609" y2="-1" transform="matrix(0.643278 -0.765632 0.766456 0.642297 95.5798 65.3437)" stroke="#052A24" stroke-width="2"/>
<line y1="-1" x2="8.18794" y2="-1" transform="matrix(0.766456 -0.642297 0.643278 0.765632 113.256 64.8318)" stroke="#052A24" stroke-width="2"/>
<line y1="-1" x2="8.18967" y2="-1" transform="matrix(0.866307 -0.499512 0.500488 0.865743 131.073 64.0653)" stroke="#052A24" stroke-width="2"/>
<line y1="-1" x2="8.19109" y2="-1" transform="matrix(0.939835 -0.341627 0.342413 0.939549 149.053 63.5534)" stroke="#052A24" stroke-width="2"/>
<line y1="-1" x2="8.19202" y2="-1" transform="matrix(0.984846 -0.173429 0.173867 0.984769 167.209 62.7868)" stroke="#052A24" stroke-width="2"/>
<line y1="-1" x2="8.182" y2="-1" transform="matrix(-0.173867 -0.984769 0.984846 -0.173429 8.43213 66.1103)" stroke="#052A24" stroke-width="2"/>
<line x1="24.7974" y1="66.1103" x2="24.7974" y2="57.9286" stroke="#052A24" stroke-width="2"/>
<line y1="-1" x2="8.182" y2="-1" transform="matrix(0.173867 -0.984769 0.984846 0.173429 43.1627 66.1103)" stroke="#052A24" stroke-width="2"/>
<line x1="195.789" y1="63.0197" x2="187.597" y2="63.0197" stroke="#052A24" stroke-width="2"/>
<line y1="-1" x2="8.18293" y2="-1" transform="matrix(0.342413 -0.939549 0.939835 0.341627 42.1299 80.1725)" stroke="#052A24" stroke-width="2"/>
<line y1="-1" x2="8.18435" y2="-1" transform="matrix(0.500488 -0.865743 0.866307 0.499512 59.5903 79.9172)" stroke="#052A24" stroke-width="2"/>
<line y1="-1" x2="8.18609" y2="-1" transform="matrix(0.643278 -0.765632 0.766456 0.642297 77.1458 79.6613)" stroke="#052A24" stroke-width="2"/>
<line y1="-1" x2="8.18794" y2="-1" transform="matrix(0.766456 -0.642297 0.643278 0.765632 94.8219 79.15)" stroke="#052A24" stroke-width="2"/>
<line y1="-1" x2="8.18967" y2="-1" transform="matrix(0.866307 -0.499512 0.500488 0.865743 112.642 78.3828)" stroke="#052A24" stroke-width="2"/>
<line y1="-1" x2="8.19109" y2="-1" transform="matrix(0.939835 -0.341627 0.342413 0.939549 130.621 77.8716)" stroke="#052A24" stroke-width="2"/>
<line y1="-1" x2="8.19202" y2="-1" transform="matrix(0.984846 -0.173429 0.173867 0.984769 148.778 77.1044)" stroke="#052A24" stroke-width="2"/>
<line x1="6.36334" y1="80.4285" x2="6.36334" y2="72.2468" stroke="#052A24" stroke-width="2"/>
<line y1="-1" x2="8.182" y2="-1" transform="matrix(0.173867 -0.984769 0.984846 0.173429 24.7312 80.4285)" stroke="#052A24" stroke-width="2"/>
<line x1="177.355" y1="77.3378" x2="169.163" y2="77.3378" stroke="#052A24" stroke-width="2"/>
<line y1="-1" x2="8.19202" y2="-1" transform="matrix(-0.984846 -0.173429 0.173867 -0.984769 195.697 77.1044)" stroke="#052A24" stroke-width="2"/>
<line y1="-1" x2="8.18293" y2="-1" transform="matrix(0.342413 -0.939549 0.939835 0.341627 23.6959 94.4907)" stroke="#052A24" stroke-width="2"/>
<line y1="-1" x2="8.18435" y2="-1" transform="matrix(0.500488 -0.865743 0.866307 0.499512 41.1588 94.2348)" stroke="#052A24" stroke-width="2"/>
<line y1="-1" x2="8.18609" y2="-1" transform="matrix(0.643278 -0.765632 0.766456 0.642297 58.7142 93.9795)" stroke="#052A24" stroke-width="2"/>
<line y1="-1" x2="8.18794" y2="-1" transform="matrix(0.766456 -0.642297 0.643278 0.765632 76.3904 93.4682)" stroke="#052A24" stroke-width="2"/>
<line y1="-1" x2="8.18967" y2="-1" transform="matrix(0.866307 -0.499512 0.500488 0.865743 94.2079 92.701)" stroke="#052A24" stroke-width="2"/>
<line y1="-1" x2="8.19109" y2="-1" transform="matrix(0.939835 -0.341627 0.342413 0.939549 112.187 92.1898)" stroke="#052A24" stroke-width="2"/>
<line y1="-1" x2="8.19202" y2="-1" transform="matrix(0.984846 -0.173429 0.173867 0.984769 130.344 91.4226)" stroke="#052A24" stroke-width="2"/>
<line y1="-1" x2="8.182" y2="-1" transform="matrix(0.173867 -0.984769 0.984846 0.173429 6.29712 94.7467)" stroke="#052A24" stroke-width="2"/>
<line x1="158.924" y1="91.6554" x2="150.731" y2="91.6554" stroke="#052A24" stroke-width="2"/>
<line y1="-1" x2="8.19202" y2="-1" transform="matrix(-0.984846 -0.173429 0.173867 -0.984769 177.263 91.4226)" stroke="#052A24" stroke-width="2"/>
<line y1="-1" x2="8.19109" y2="-1" transform="matrix(-0.939835 -0.341627 0.342413 -0.939549 195.419 92.1898)" stroke="#052A24" stroke-width="2"/>
<line y1="-1" x2="8.18293" y2="-1" transform="matrix(0.342413 -0.939549 0.939835 0.341627 5.26434 108.809)" stroke="#052A24" stroke-width="2"/>
<line y1="-1" x2="8.18435" y2="-1" transform="matrix(0.500488 -0.865743 0.866307 0.499512 22.7247 108.553)" stroke="#052A24" stroke-width="2"/>
<line y1="-1" x2="8.18609" y2="-1" transform="matrix(0.643278 -0.765632 0.766456 0.642297 40.2801 108.297)" stroke="#052A24" stroke-width="2"/>
<line y1="-1" x2="8.18794" y2="-1" transform="matrix(0.766456 -0.642297 0.643278 0.765632 57.9563 107.786)" stroke="#052A24" stroke-width="2"/>
<line y1="-1" x2="8.18967" y2="-1" transform="matrix(0.866307 -0.499512 0.500488 0.865743 75.7764 107.019)" stroke="#052A24" stroke-width="2"/>
<line y1="-1" x2="8.19109" y2="-1" transform="matrix(0.939835 -0.341627 0.342413 0.939549 93.7556 106.507)" stroke="#052A24" stroke-width="2"/>
<line y1="-1" x2="8.19202" y2="-1" transform="matrix(0.984846 -0.173429 0.173867 0.984769 111.912 105.741)" stroke="#052A24" stroke-width="2"/>
<line y1="-1" x2="8.18967" y2="-1" transform="matrix(-0.866307 -0.499512 0.500488 -0.865743 194.967 107.019)" stroke="#052A24" stroke-width="2"/>
<line x1="140.492" y1="105.974" x2="132.3" y2="105.974" stroke="#052A24" stroke-width="2"/>
<line y1="-1" x2="8.19202" y2="-1" transform="matrix(-0.984846 -0.173429 0.173867 -0.984769 158.831 105.741)" stroke="#052A24" stroke-width="2"/>
<line y1="-1" x2="8.19109" y2="-1" transform="matrix(-0.939835 -0.341627 0.342413 -0.939549 176.985 106.507)" stroke="#052A24" stroke-width="2"/>
<line y1="-1" x2="8.18435" y2="-1" transform="matrix(0.500488 -0.865743 0.866307 0.499512 4.29315 122.871)" stroke="#052A24" stroke-width="2"/>
<line y1="-1" x2="8.18609" y2="-1" transform="matrix(0.643278 -0.765632 0.766456 0.642297 21.8486 122.615)" stroke="#052A24" stroke-width="2"/>
<line y1="-1" x2="8.18794" y2="-1" transform="matrix(0.766456 -0.642297 0.643278 0.765632 39.5248 122.104)" stroke="#052A24" stroke-width="2"/>
<line y1="-1" x2="8.18967" y2="-1" transform="matrix(0.866307 -0.499512 0.500488 0.865743 57.3423 121.337)" stroke="#052A24" stroke-width="2"/>
<line y1="-1" x2="8.19109" y2="-1" transform="matrix(0.939835 -0.341627 0.342413 0.939549 75.3215 120.826)" stroke="#052A24" stroke-width="2"/>
<line y1="-1" x2="8.19202" y2="-1" transform="matrix(0.984846 -0.173429 0.173867 0.984769 93.4781 120.058)" stroke="#052A24" stroke-width="2"/>
<line y1="-1" x2="8.18967" y2="-1" transform="matrix(-0.866307 -0.499512 0.500488 -0.865743 176.533 121.337)" stroke="#052A24" stroke-width="2"/>
<line y1="-1" x2="8.18794" y2="-1" transform="matrix(-0.766456 -0.642297 0.643278 -0.765632 194.353 122.104)" stroke="#052A24" stroke-width="2"/>
<line x1="122.058" y1="120.291" x2="113.866" y2="120.291" stroke="#052A24" stroke-width="2"/>
<line y1="-1" x2="8.19202" y2="-1" transform="matrix(-0.984846 -0.173429 0.173867 -0.984769 140.397 120.058)" stroke="#052A24" stroke-width="2"/>
<line y1="-1" x2="8.19109" y2="-1" transform="matrix(-0.939835 -0.341627 0.342413 -0.939549 158.554 120.826)" stroke="#052A24" stroke-width="2"/>
<line y1="-1" x2="8.18609" y2="-1" transform="matrix(0.643278 -0.765632 0.766456 0.642297 3.41449 136.933)" stroke="#052A24" stroke-width="2"/>
<line y1="-1" x2="8.18794" y2="-1" transform="matrix(0.766456 -0.642297 0.643278 0.765632 21.0906 136.422)" stroke="#052A24" stroke-width="2"/>
<line y1="-1" x2="8.18967" y2="-1" transform="matrix(0.866307 -0.499512 0.500488 0.865743 38.9107 135.655)" stroke="#052A24" stroke-width="2"/>
<line y1="-1" x2="8.19109" y2="-1" transform="matrix(0.939835 -0.341627 0.342413 0.939549 56.89 135.144)" stroke="#052A24" stroke-width="2"/>
<line y1="-1" x2="8.19202" y2="-1" transform="matrix(0.984846 -0.173429 0.173867 0.984769 75.0466 134.377)" stroke="#052A24" stroke-width="2"/>
<line y1="-1" x2="8.18967" y2="-1" transform="matrix(-0.866307 -0.499512 0.500488 -0.865743 158.102 135.655)" stroke="#052A24" stroke-width="2"/>
<line y1="-1" x2="8.18794" y2="-1" transform="matrix(-0.766456 -0.642297 0.643278 -0.765632 175.919 136.422)" stroke="#052A24" stroke-width="2"/>
<line y1="-1" x2="8.18609" y2="-1" transform="matrix(-0.643278 -0.765632 0.766456 -0.642297 193.595 136.933)" stroke="#052A24" stroke-width="2"/>
<line x1="103.627" y1="134.609" x2="95.4342" y2="134.609" stroke="#052A24" stroke-width="2"/>
<line y1="-1" x2="8.19202" y2="-1" transform="matrix(-0.984846 -0.173429 0.173867 -0.984769 121.966 134.377)" stroke="#052A24" stroke-width="2"/>
<line y1="-1" x2="8.19109" y2="-1" transform="matrix(-0.939835 -0.341627 0.342413 -0.939549 140.122 135.144)" stroke="#052A24" stroke-width="2"/>
<line y1="-1" x2="8.18794" y2="-1" transform="matrix(0.766456 -0.642297 0.643278 0.765632 2.65912 150.74)" stroke="#052A24" stroke-width="2"/>
<line y1="-1" x2="8.18967" y2="-1" transform="matrix(0.866307 -0.499512 0.500488 0.865743 20.4766 149.973)" stroke="#052A24" stroke-width="2"/>
<line y1="-1" x2="8.19109" y2="-1" transform="matrix(0.939835 -0.341627 0.342413 0.939549 38.4559 149.461)" stroke="#052A24" stroke-width="2"/>
<line y1="-1" x2="8.19202" y2="-1" transform="matrix(0.984846 -0.173429 0.173867 0.984769 56.6125 148.694)" stroke="#052A24" stroke-width="2"/>
<line y1="-1" x2="8.18967" y2="-1" transform="matrix(-0.866307 -0.499512 0.500488 -0.865743 139.667 149.973)" stroke="#052A24" stroke-width="2"/>
<line y1="-1" x2="8.18794" y2="-1" transform="matrix(-0.766456 -0.642297 0.643278 -0.765632 157.488 150.74)" stroke="#052A24" stroke-width="2"/>
<line y1="-1" x2="8.18609" y2="-1" transform="matrix(-0.643278 -0.765632 0.766456 -0.642297 175.161 151.251)" stroke="#052A24" stroke-width="2"/>
<line y1="-1" x2="8.18435" y2="-1" transform="matrix(-0.500488 -0.865743 0.866307 -0.499512 192.719 151.507)" stroke="#052A24" stroke-width="2"/>
<line x1="85.1925" y1="148.928" x2="77.0002" y2="148.928" stroke="#052A24" stroke-width="2"/>
<line y1="-1" x2="8.19202" y2="-1" transform="matrix(-0.984846 -0.173429 0.173867 -0.984769 103.531 148.694)" stroke="#052A24" stroke-width="2"/>
<line y1="-1" x2="8.19109" y2="-1" transform="matrix(-0.939835 -0.341627 0.342413 -0.939549 121.688 149.461)" stroke="#052A24" stroke-width="2"/>
<line y1="-1" x2="8.18967" y2="-1" transform="matrix(0.866307 -0.499512 0.500488 0.865743 2.0451 164.291)" stroke="#052A24" stroke-width="2"/>
<line y1="-1" x2="8.19109" y2="-1" transform="matrix(0.939835 -0.341627 0.342413 0.939549 20.0244 163.779)" stroke="#052A24" stroke-width="2"/>
<line y1="-1" x2="8.19202" y2="-1" transform="matrix(0.984846 -0.173429 0.173867 0.984769 38.181 163.012)" stroke="#052A24" stroke-width="2"/>
<line y1="-1" x2="8.18967" y2="-1" transform="matrix(-0.866307 -0.499512 0.500488 -0.865743 121.236 164.291)" stroke="#052A24" stroke-width="2"/>
<line y1="-1" x2="8.18794" y2="-1" transform="matrix(-0.766456 -0.642297 0.643278 -0.765632 139.053 165.058)" stroke="#052A24" stroke-width="2"/>
<line y1="-1" x2="8.18609" y2="-1" transform="matrix(-0.643278 -0.765632 0.766456 -0.642297 156.73 165.569)" stroke="#052A24" stroke-width="2"/>
<line y1="-1" x2="8.18435" y2="-1" transform="matrix(-0.500488 -0.865743 0.866307 -0.499512 174.285 165.824)" stroke="#052A24" stroke-width="2"/>
<line y1="-1" x2="8.18293" y2="-1" transform="matrix(-0.342413 -0.939549 0.939835 -0.341627 191.748 166.08)" stroke="#052A24" stroke-width="2"/>
<line x1="66.761" y1="163.245" x2="58.5686" y2="163.245" stroke="#052A24" stroke-width="2"/>
<line y1="-1" x2="8.19202" y2="-1" transform="matrix(-0.984846 -0.173429 0.173867 -0.984769 85.1 163.012)" stroke="#052A24" stroke-width="2"/>
<line y1="-1" x2="8.19109" y2="-1" transform="matrix(-0.939835 -0.341627 0.342413 -0.939549 103.257 163.779)" stroke="#052A24" stroke-width="2"/>
<line y1="-1" x2="8.19109" y2="-1" transform="matrix(0.939835 -0.341627 0.342413 0.939549 1.59033 178.097)" stroke="#052A24" stroke-width="2"/>
<line y1="-1" x2="8.19202" y2="-1" transform="matrix(0.984846 -0.173429 0.173867 0.984769 19.7469 177.331)" stroke="#052A24" stroke-width="2"/>
<line y1="-1" x2="8.18967" y2="-1" transform="matrix(-0.866307 -0.499512 0.500488 -0.865743 102.802 178.609)" stroke="#052A24" stroke-width="2"/>
<line y1="-1" x2="8.18794" y2="-1" transform="matrix(-0.766456 -0.642297 0.643278 -0.765632 120.622 179.375)" stroke="#052A24" stroke-width="2"/>
<line y1="-1" x2="8.18609" y2="-1" transform="matrix(-0.643278 -0.765632 0.766456 -0.642297 138.298 179.887)" stroke="#052A24" stroke-width="2"/>
<line y1="-1" x2="8.18435" y2="-1" transform="matrix(-0.500488 -0.865743 0.866307 -0.499512 155.854 180.143)" stroke="#052A24" stroke-width="2"/>
<line y1="-1" x2="8.18293" y2="-1" transform="matrix(-0.342413 -0.939549 0.939835 -0.341627 173.314 180.399)" stroke="#052A24" stroke-width="2"/>
<line y1="-1" x2="8.182" y2="-1" transform="matrix(-0.173867 -0.984769 0.984846 -0.173429 190.713 180.654)" stroke="#052A24" stroke-width="2"/>
<line x1="48.3269" y1="177.563" x2="40.1346" y2="177.563" stroke="#052A24" stroke-width="2"/>
<line y1="-1" x2="8.19202" y2="-1" transform="matrix(-0.984846 -0.173429 0.173867 -0.984769 66.6659 177.331)" stroke="#052A24" stroke-width="2"/>
<line y1="-1" x2="8.19109" y2="-1" transform="matrix(-0.939835 -0.341627 0.342413 -0.939549 84.8225 178.097)" stroke="#052A24" stroke-width="2"/>
<line y1="-1" x2="8.19202" y2="-1" transform="matrix(0.984846 -0.173429 0.173867 0.984769 1.31543 191.648)" stroke="#052A24" stroke-width="2"/>
<line y1="-1" x2="8.18967" y2="-1" transform="matrix(-0.866307 -0.499512 0.500488 -0.865743 84.3704 192.926)" stroke="#052A24" stroke-width="2"/>
<line y1="-1" x2="8.18794" y2="-1" transform="matrix(-0.766456 -0.642297 0.643278 -0.765632 102.188 193.694)" stroke="#052A24" stroke-width="2"/>
<line y1="-1" x2="8.18609" y2="-1" transform="matrix(-0.643278 -0.765632 0.766456 -0.642297 119.864 194.205)" stroke="#052A24" stroke-width="2"/>
<line y1="-1" x2="8.18435" y2="-1" transform="matrix(-0.500488 -0.865743 0.866307 -0.499512 137.419 194.461)" stroke="#052A24" stroke-width="2"/>
<line y1="-1" x2="8.18293" y2="-1" transform="matrix(-0.342413 -0.939549 0.939835 -0.341627 154.882 194.716)" stroke="#052A24" stroke-width="2"/>
<line y1="-1" x2="8.182" y2="-1" transform="matrix(-0.173867 -0.984769 0.984846 -0.173429 172.281 194.972)" stroke="#052A24" stroke-width="2"/>
<line x1="188.646" y1="194.972" x2="188.646" y2="186.79" stroke="#052A24" stroke-width="2"/>
<line x1="29.8953" y1="191.881" x2="21.703" y2="191.881" stroke="#052A24" stroke-width="2"/>
<line y1="-1" x2="8.19202" y2="-1" transform="matrix(-0.984846 -0.173429 0.173867 -0.984769 48.2344 191.648)" stroke="#052A24" stroke-width="2"/>
<line y1="-1" x2="8.19109" y2="-1" transform="matrix(-0.939835 -0.341627 0.342413 -0.939549 66.391 192.415)" stroke="#052A24" stroke-width="2"/>
<line y1="-1" x2="8.18967" y2="-1" transform="matrix(-0.866307 -0.499512 0.500488 -0.865743 65.9363 207.245)" stroke="#052A24" stroke-width="2"/>
<line y1="-1" x2="8.18794" y2="-1" transform="matrix(-0.766456 -0.642297 0.643278 -0.765632 83.7563 208.011)" stroke="#052A24" stroke-width="2"/>
<line y1="-1" x2="8.18609" y2="-1" transform="matrix(-0.643278 -0.765632 0.766456 -0.642297 101.432 208.523)" stroke="#052A24" stroke-width="2"/>
<line y1="-1" x2="8.18435" y2="-1" transform="matrix(-0.500488 -0.865743 0.866307 -0.499512 118.988 208.778)" stroke="#052A24" stroke-width="2"/>
<line y1="-1" x2="8.18293" y2="-1" transform="matrix(-0.342413 -0.939549 0.939835 -0.341627 136.448 209.034)" stroke="#052A24" stroke-width="2"/>
<line y1="-1" x2="8.182" y2="-1" transform="matrix(-0.173867 -0.984769 0.984846 -0.173429 153.847 209.29)" stroke="#052A24" stroke-width="2"/>
<line x1="170.212" y1="209.29" x2="170.212" y2="201.108" stroke="#052A24" stroke-width="2"/>
<line y1="-1" x2="8.182" y2="-1" transform="matrix(0.173867 -0.984769 0.984846 0.173429 188.58 209.29)" stroke="#052A24" stroke-width="2"/>
<line x1="11.4612" y1="206.199" x2="3.26891" y2="206.199" stroke="#052A24" stroke-width="2"/>
<line y1="-1" x2="8.19202" y2="-1" transform="matrix(-0.984846 -0.173429 0.173867 -0.984769 29.8003 205.966)" stroke="#052A24" stroke-width="2"/>
<line y1="-1" x2="8.19109" y2="-1" transform="matrix(-0.939835 -0.341627 0.342413 -0.939549 47.9569 206.733)" stroke="#052A24" stroke-width="2"/>
<line y1="-1" x2="8.18293" y2="-1" transform="matrix(0.342413 -0.939549 0.939835 0.341627 187.545 223.352)" stroke="#052A24" stroke-width="2"/>
<line y1="-1" x2="8.18967" y2="-1" transform="matrix(-0.866307 -0.499512 0.500488 -0.865743 47.5048 221.562)" stroke="#052A24" stroke-width="2"/>
<line y1="-1" x2="8.18794" y2="-1" transform="matrix(-0.766456 -0.642297 0.643278 -0.765632 65.3221 222.329)" stroke="#052A24" stroke-width="2"/>
<line y1="-1" x2="8.18609" y2="-1" transform="matrix(-0.643278 -0.765632 0.766456 -0.642297 82.9984 222.841)" stroke="#052A24" stroke-width="2"/>
<line y1="-1" x2="8.18435" y2="-1" transform="matrix(-0.500488 -0.865743 0.866307 -0.499512 100.554 223.097)" stroke="#052A24" stroke-width="2"/>
<line y1="-1" x2="8.18293" y2="-1" transform="matrix(-0.342413 -0.939549 0.939835 -0.341627 118.017 223.352)" stroke="#052A24" stroke-width="2"/>
<line y1="-1" x2="8.182" y2="-1" transform="matrix(-0.173867 -0.984769 0.984846 -0.173429 135.415 223.608)" stroke="#052A24" stroke-width="2"/>
<line x1="151.781" y1="223.608" x2="151.781" y2="215.426" stroke="#052A24" stroke-width="2"/>
<line y1="-1" x2="8.182" y2="-1" transform="matrix(0.173867 -0.984769 0.984846 0.173429 170.146 223.608)" stroke="#052A24" stroke-width="2"/>
<line y1="-1" x2="8.19202" y2="-1" transform="matrix(-0.984846 -0.173429 0.173867 -0.984769 11.3688 220.284)" stroke="#052A24" stroke-width="2"/>
<line y1="-1" x2="8.19109" y2="-1" transform="matrix(-0.939835 -0.341627 0.342413 -0.939549 29.5254 221.051)" stroke="#052A24" stroke-width="2"/>
<line y1="-1" x2="8.18293" y2="-1" transform="matrix(0.342413 -0.939549 0.939835 0.341627 169.113 237.67)" stroke="#052A24" stroke-width="2"/>
<line y1="-1" x2="8.18435" y2="-1" transform="matrix(0.500488 -0.865743 0.866307 0.499512 186.574 237.414)" stroke="#052A24" stroke-width="2"/>
<line y1="-1" x2="8.18967" y2="-1" transform="matrix(-0.866307 -0.499512 0.500488 -0.865743 29.0706 235.88)" stroke="#052A24" stroke-width="2"/>
<line y1="-1" x2="8.18794" y2="-1" transform="matrix(-0.766456 -0.642297 0.643278 -0.765632 46.8906 236.648)" stroke="#052A24" stroke-width="2"/>
<line y1="-1" x2="8.18609" y2="-1" transform="matrix(-0.643278 -0.765632 0.766456 -0.642297 64.5669 237.159)" stroke="#052A24" stroke-width="2"/>
<line y1="-1" x2="8.18435" y2="-1" transform="matrix(-0.500488 -0.865743 0.866307 -0.499512 82.1223 237.414)" stroke="#052A24" stroke-width="2"/>
<line y1="-1" x2="8.18293" y2="-1" transform="matrix(-0.342413 -0.939549 0.939835 -0.341627 99.5826 237.67)" stroke="#052A24" stroke-width="2"/>
<line y1="-1" x2="8.182" y2="-1" transform="matrix(-0.173867 -0.984769 0.984846 -0.173429 116.981 237.926)" stroke="#052A24" stroke-width="2"/>
<line x1="133.347" y1="237.926" x2="133.347" y2="229.744" stroke="#052A24" stroke-width="2"/>
<line y1="-1" x2="8.182" y2="-1" transform="matrix(0.173867 -0.984769 0.984846 0.173429 151.714 237.926)" stroke="#052A24" stroke-width="2"/>
<line y1="-1" x2="8.19109" y2="-1" transform="matrix(-0.939835 -0.341627 0.342413 -0.939549 11.0913 235.369)" stroke="#052A24" stroke-width="2"/>
<line y1="-1" x2="8.18293" y2="-1" transform="matrix(0.342413 -0.939549 0.939835 0.341627 150.679 251.988)" stroke="#052A24" stroke-width="2"/>
<line y1="-1" x2="8.18435" y2="-1" transform="matrix(0.500488 -0.865743 0.866307 0.499512 168.142 251.732)" stroke="#052A24" stroke-width="2"/>
<line y1="-1" x2="8.18609" y2="-1" transform="matrix(0.643278 -0.765632 0.766456 0.642297 185.698 251.476)" stroke="#052A24" stroke-width="2"/>
<line y1="-1" x2="8.18967" y2="-1" transform="matrix(-0.866307 -0.499512 0.500488 -0.865743 10.6391 250.199)" stroke="#052A24" stroke-width="2"/>
<line y1="-1" x2="8.18794" y2="-1" transform="matrix(-0.766456 -0.642297 0.643278 -0.765632 28.4566 250.965)" stroke="#052A24" stroke-width="2"/>
<line y1="-1" x2="8.18609" y2="-1" transform="matrix(-0.643278 -0.765632 0.766456 -0.642297 46.1328 251.476)" stroke="#052A24" stroke-width="2"/>
<line y1="-1" x2="8.18435" y2="-1" transform="matrix(-0.500488 -0.865743 0.866307 -0.499512 63.6882 251.732)" stroke="#052A24" stroke-width="2"/>
<line y1="-1" x2="8.18293" y2="-1" transform="matrix(-0.342413 -0.939549 0.939835 -0.341627 81.1511 251.988)" stroke="#052A24" stroke-width="2"/>
<line y1="-1" x2="8.182" y2="-1" transform="matrix(-0.173867 -0.984769 0.984846 -0.173429 98.5498 252.244)" stroke="#052A24" stroke-width="2"/>
<line x1="114.915" y1="252.244" x2="114.915" y2="244.062" stroke="#052A24" stroke-width="2"/>
<line y1="-1" x2="8.182" y2="-1" transform="matrix(0.173867 -0.984769 0.984846 0.173429 133.28 252.244)" stroke="#052A24" stroke-width="2"/>
<line y1="-1" x2="8.18293" y2="-1" transform="matrix(0.342413 -0.939549 0.939835 0.341627 132.248 266.306)" stroke="#052A24" stroke-width="2"/>
<line y1="-1" x2="8.18435" y2="-1" transform="matrix(0.500488 -0.865743 0.866307 0.499512 149.708 266.051)" stroke="#052A24" stroke-width="2"/>
<line y1="-1" x2="8.18609" y2="-1" transform="matrix(0.643278 -0.765632 0.766456 0.642297 167.263 265.795)" stroke="#052A24" stroke-width="2"/>
<line y1="-1" x2="8.18794" y2="-1" transform="matrix(0.766456 -0.642297 0.643278 0.765632 184.94 265.283)" stroke="#052A24" stroke-width="2"/>
<line y1="-1" x2="8.18794" y2="-1" transform="matrix(-0.766456 -0.642297 0.643278 -0.765632 10.0251 265.283)" stroke="#052A24" stroke-width="2"/>
<line y1="-1" x2="8.18609" y2="-1" transform="matrix(-0.643278 -0.765632 0.766456 -0.642297 27.7012 265.795)" stroke="#052A24" stroke-width="2"/>
<line y1="-1" x2="8.18435" y2="-1" transform="matrix(-0.500488 -0.865743 0.866307 -0.499512 45.2567 266.051)" stroke="#052A24" stroke-width="2"/>
<line y1="-1" x2="8.18293" y2="-1" transform="matrix(-0.342413 -0.939549 0.939835 -0.341627 62.717 266.306)" stroke="#052A24" stroke-width="2"/>
<line y1="-1" x2="8.182" y2="-1" transform="matrix(-0.173867 -0.984769 0.984846 -0.173429 80.1157 266.562)" stroke="#052A24" stroke-width="2"/>
<line x1="96.481" y1="266.562" x2="96.481" y2="258.38" stroke="#052A24" stroke-width="2"/>
<line y1="-1" x2="8.182" y2="-1" transform="matrix(0.173867 -0.984769 0.984846 0.173429 114.849 266.562)" stroke="#052A24" stroke-width="2"/>
</svg>
