<svg width="24" height="26" viewBox="0 0 24 26" fill="none" xmlns="http://www.w3.org/2000/svg">
<path d="M17.6569 18.6569C16.7202 19.5935 14.7616 21.5521 13.4138 22.8999C12.6327 23.681 11.3677 23.6814 10.5866 22.9003C9.26234 21.576 7.34159 19.6553 6.34315 18.6569C3.21895 15.5327 3.21895 10.4673 6.34315 7.34315C9.46734 4.21895 14.5327 4.21895 17.6569 7.34315C20.781 10.4673 20.781 15.5327 17.6569 18.6569Z" stroke="#006766" stroke-width="2" stroke-linecap="round" stroke-linejoin="round"/>
<path d="M15 13C15 14.6569 13.6569 16 12 16C10.3431 16 9 14.6569 9 13C9 11.3431 10.3431 10 12 10C13.6569 10 15 11.3431 15 13Z" stroke="#006766" stroke-width="2" stroke-linecap="round" stroke-linejoin="round"/>
</svg>
