<svg width="67" height="24" viewBox="0 0 67 24" fill="none" xmlns="http://www.w3.org/2000/svg">
<path d="M22.4044 0V0.664819C21.9612 0.819943 21.4737 1.17451 20.9418 1.72853C20.41 2.26039 19.9335 3.10249 19.5125 4.25485L12.2327 23.6343C12.0997 23.6343 11.9557 23.6233 11.8006 23.6011C11.6676 23.6011 11.5235 23.6011 11.3684 23.6011C11.2133 23.6011 11.0582 23.6011 10.903 23.6011C10.7701 23.6233 10.6371 23.6343 10.5042 23.6343L2.16067 2.79224C1.82826 1.9723 1.4626 1.41828 1.06371 1.13019C0.686981 0.842104 0.33241 0.68698 0 0.664819V0C0.576177 0.0221604 1.27424 0.0443208 2.09418 0.0664811C2.93629 0.0886415 3.75623 0.0997217 4.55402 0.0997217C5.52909 0.0997217 6.43767 0.0886415 7.27978 0.0664811C8.14404 0.0443208 8.83103 0.0221604 9.34072 0V0.664819C8.60942 0.68698 8.04432 0.775623 7.64543 0.930748C7.2687 1.06371 7.05817 1.32964 7.01385 1.72853C6.96953 2.10526 7.09141 2.68144 7.3795 3.45706L13.4958 19.1801L12.8643 19.9446L17.8504 6.6482C18.4044 5.16343 18.6814 3.98892 18.6814 3.12465C18.6814 2.26039 18.4377 1.63989 17.9501 1.26316C17.4626 0.886426 16.7645 0.68698 15.856 0.664819V0C16.5873 0.0221604 17.2742 0.0443208 17.9169 0.0664811C18.5817 0.0886415 19.2355 0.0997217 19.8781 0.0997217C20.41 0.0997217 20.8753 0.0886415 21.2742 0.0664811C21.6953 0.0443208 22.072 0.0221604 22.4044 0Z" fill="#006766"/>
<path d="M28.5805 5.88366C30.5306 5.88366 32.0597 6.47091 33.1678 7.64543C34.2758 8.81994 34.8298 10.6925 34.8298 13.2632H23.6276L23.5944 12.6316H30.9739C31.0182 11.5457 30.9517 10.5485 30.7744 9.63989C30.5971 8.70914 30.309 7.96676 29.9101 7.41274C29.5334 6.85873 29.0348 6.58172 28.4143 6.58172C27.5722 6.58172 26.8409 7.08033 26.2204 8.07756C25.5999 9.05263 25.2121 10.6593 25.057 12.8975L25.1899 13.097C25.1456 13.385 25.1124 13.6953 25.0902 14.0277C25.0902 14.3601 25.0902 14.6925 25.0902 15.0249C25.0902 16.554 25.3118 17.8172 25.755 18.8144C26.1982 19.8116 26.7744 20.5429 27.4836 21.0083C28.1927 21.4737 28.924 21.7064 29.6775 21.7064C30.1872 21.7064 30.7079 21.6288 31.2398 21.4737C31.7716 21.3186 32.2924 21.0305 32.8021 20.6094C33.3118 20.1884 33.7772 19.59 34.1982 18.8144L34.8298 19.0803C34.586 19.856 34.1761 20.6316 33.5999 21.4072C33.0459 22.1607 32.3257 22.7812 31.4392 23.2687C30.5528 23.7562 29.5113 24 28.3146 24C26.8077 24 25.478 23.6676 24.3257 23.0028C23.1733 22.3379 22.2758 21.3518 21.6331 20.0443C20.9905 18.7147 20.6691 17.097 20.6691 15.1911C20.6691 13.1745 21.0016 11.4792 21.6664 10.1053C22.3534 8.7313 23.2952 7.68975 24.4919 6.98061C25.6885 6.24931 27.0514 5.88366 28.5805 5.88366Z" fill="#006766"/>
<path d="M47.2279 5.88366C47.9149 5.88366 48.48 6.0277 48.9232 6.31579C49.3886 6.60388 49.7321 6.96953 49.9537 7.41274C50.1753 7.85596 50.2861 8.32133 50.2861 8.80886C50.2861 9.54017 50.0645 10.1496 49.6213 10.6371C49.2002 11.1247 48.6351 11.3684 47.926 11.3684C47.2612 11.3684 46.7182 11.1911 46.2972 10.8366C45.8761 10.482 45.6656 9.99446 45.6656 9.37396C45.6656 8.81994 45.7986 8.35457 46.0645 7.97784C46.3526 7.60111 46.6739 7.30194 47.0285 7.08033C46.7847 6.94737 46.5077 6.90305 46.1975 6.94737C45.6656 6.99169 45.1781 7.18006 44.7349 7.51247C44.2916 7.84488 43.9149 8.25485 43.6047 8.74238C43.2944 9.22992 43.0506 9.75069 42.8734 10.3047C42.7182 10.8587 42.6407 11.3906 42.6407 11.9003V20.1108C42.6407 21.1967 42.9177 21.928 43.4717 22.3047C44.0257 22.6593 44.8346 22.8366 45.8983 22.8366V23.5346C45.3886 23.5125 44.6462 23.4903 43.6711 23.4681C42.7182 23.4238 41.721 23.4017 40.6795 23.4017C39.8152 23.4017 38.9509 23.4238 38.0867 23.4681C37.2445 23.4903 36.613 23.5125 36.1919 23.5346V22.8366C37.0119 22.8366 37.588 22.6704 37.9204 22.3379C38.275 22.0055 38.4523 21.374 38.4523 20.4432V9.9723C38.4523 8.97507 38.2861 8.24377 37.9537 7.77839C37.6434 7.29086 37.0562 7.04709 36.1919 7.04709V6.34903C36.9011 6.41551 37.588 6.44875 38.2529 6.44875C39.0728 6.44875 39.8484 6.41551 40.5797 6.34903C41.3332 6.26039 42.0202 6.1385 42.6407 5.98338V9.44044C42.9066 8.81994 43.2501 8.24377 43.6711 7.71191C44.1144 7.18006 44.6351 6.74792 45.2335 6.41551C45.854 6.06094 46.5188 5.88366 47.2279 5.88366Z" fill="#006766"/>
<path d="M55.4047 23.7673C54.4518 23.7673 53.6429 23.59 52.9781 23.2355C52.3133 22.8587 51.8147 22.3601 51.4823 21.7396C51.1498 21.097 50.9836 20.3878 50.9836 19.6122C50.9836 18.6593 51.2052 17.8837 51.6485 17.2853C52.0917 16.6648 52.6568 16.1773 53.3438 15.8227C54.0529 15.446 54.7953 15.1357 55.5709 14.892C56.3465 14.626 57.0778 14.3823 57.7648 14.1607C58.4518 13.9169 59.0169 13.6399 59.4601 13.3296C59.9033 13.0194 60.1249 12.6094 60.1249 12.0997V9.67313C60.1249 8.96399 60.0141 8.38781 59.7925 7.9446C59.5931 7.47922 59.2828 7.13573 58.8618 6.91413C58.4629 6.67036 57.9532 6.54848 57.3327 6.54848C56.8673 6.54848 56.3798 6.61496 55.8701 6.74792C55.3604 6.88089 54.9393 7.13573 54.6069 7.51247C55.1831 7.66759 55.6263 7.95568 55.9366 8.37673C56.269 8.79778 56.4352 9.30748 56.4352 9.90582C56.4352 10.5928 56.2025 11.1357 55.7371 11.5346C55.2939 11.9114 54.7288 12.0997 54.0418 12.0997C53.3105 12.0997 52.7565 11.867 52.3798 11.4017C52.003 10.9363 51.8147 10.3934 51.8147 9.77285C51.8147 9.15235 51.9698 8.64266 52.28 8.24377C52.5903 7.82271 53.0224 7.44598 53.5764 7.11357C54.1305 6.73684 54.8396 6.43767 55.7039 6.21607C56.5681 5.99446 57.51 5.88366 58.5293 5.88366C59.5044 5.88366 60.3687 5.99446 61.1221 6.21607C61.8756 6.41551 62.5183 6.78116 63.0501 7.31302C63.582 7.82271 63.9255 8.45429 64.0806 9.20776C64.2357 9.96122 64.3133 10.8809 64.3133 11.9668V21.0748C64.3133 21.6288 64.3798 22.0277 64.5127 22.2715C64.6457 22.4931 64.8562 22.6039 65.1443 22.6039C65.3659 22.6039 65.5764 22.5485 65.7759 22.4377C65.9753 22.3269 66.1969 22.1717 66.4407 21.9723L66.8064 22.5374C66.3188 22.9141 65.8091 23.2133 65.2773 23.4349C64.7454 23.6565 64.1028 23.7673 63.3493 23.7673C62.5737 23.7673 61.9532 23.6565 61.4878 23.4349C61.0446 23.2133 60.7122 22.892 60.4906 22.4709C60.2911 22.0499 60.1803 21.5512 60.1582 20.9751C59.6263 21.8615 58.9726 22.5485 58.1969 23.036C57.4213 23.5235 56.4906 23.7673 55.4047 23.7673ZM57.3992 21.9058C57.931 21.9058 58.4185 21.7618 58.8618 21.4737C59.3271 21.1856 59.7482 20.7535 60.1249 20.1773V13.4626C59.9033 13.795 59.582 14.0942 59.1609 14.3601C58.762 14.626 58.3299 14.892 57.8645 15.1579C57.3992 15.4238 56.9559 15.7341 56.5349 16.0886C56.136 16.4211 55.7925 16.8421 55.5044 17.3518C55.2385 17.8393 55.1055 18.4709 55.1055 19.2465C55.1055 20.1108 55.3161 20.7756 55.7371 21.241C56.1582 21.6842 56.7122 21.9058 57.3992 21.9058Z" fill="#006766"/>
</svg>
<svg width="67" height="24" viewBox="0 0 67 24" fill="none" xmlns="http://www.w3.org/2000/svg">
<path d="M22.4044 0V0.664819C21.9612 0.819943 21.4737 1.17451 20.9418 1.72853C20.41 2.26039 19.9335 3.10249 19.5125 4.25485L12.2327 23.6343C12.0997 23.6343 11.9557 23.6233 11.8006 23.6011C11.6676 23.6011 11.5235 23.6011 11.3684 23.6011C11.2133 23.6011 11.0582 23.6011 10.903 23.6011C10.7701 23.6233 10.6371 23.6343 10.5042 23.6343L2.16067 2.79224C1.82826 1.9723 1.4626 1.41828 1.06371 1.13019C0.686981 0.842104 0.33241 0.68698 0 0.664819V0C0.576177 0.0221604 1.27424 0.0443208 2.09418 0.0664811C2.93629 0.0886415 3.75623 0.0997217 4.55402 0.0997217C5.52909 0.0997217 6.43767 0.0886415 7.27978 0.0664811C8.14404 0.0443208 8.83103 0.0221604 9.34072 0V0.664819C8.60942 0.68698 8.04432 0.775623 7.64543 0.930748C7.2687 1.06371 7.05817 1.32964 7.01385 1.72853C6.96953 2.10526 7.09141 2.68144 7.3795 3.45706L13.4958 19.1801L12.8643 19.9446L17.8504 6.6482C18.4044 5.16343 18.6814 3.98892 18.6814 3.12465C18.6814 2.26039 18.4377 1.63989 17.9501 1.26316C17.4626 0.886426 16.7645 0.68698 15.856 0.664819V0C16.5873 0.0221604 17.2742 0.0443208 17.9169 0.0664811C18.5817 0.0886415 19.2355 0.0997217 19.8781 0.0997217C20.41 0.0997217 20.8753 0.0886415 21.2742 0.0664811C21.6953 0.0443208 22.072 0.0221604 22.4044 0Z" fill="#006766"/>
<path d="M28.5805 5.88366C30.5306 5.88366 32.0597 6.47091 33.1678 7.64543C34.2758 8.81994 34.8298 10.6925 34.8298 13.2632H23.6276L23.5944 12.6316H30.9739C31.0182 11.5457 30.9517 10.5485 30.7744 9.63989C30.5971 8.70914 30.309 7.96676 29.9101 7.41274C29.5334 6.85873 29.0348 6.58172 28.4143 6.58172C27.5722 6.58172 26.8409 7.08033 26.2204 8.07756C25.5999 9.05263 25.2121 10.6593 25.057 12.8975L25.1899 13.097C25.1456 13.385 25.1124 13.6953 25.0902 14.0277C25.0902 14.3601 25.0902 14.6925 25.0902 15.0249C25.0902 16.554 25.3118 17.8172 25.755 18.8144C26.1982 19.8116 26.7744 20.5429 27.4836 21.0083C28.1927 21.4737 28.924 21.7064 29.6775 21.7064C30.1872 21.7064 30.7079 21.6288 31.2398 21.4737C31.7716 21.3186 32.2924 21.0305 32.8021 20.6094C33.3118 20.1884 33.7772 19.59 34.1982 18.8144L34.8298 19.0803C34.586 19.856 34.1761 20.6316 33.5999 21.4072C33.0459 22.1607 32.3257 22.7812 31.4392 23.2687C30.5528 23.7562 29.5113 24 28.3146 24C26.8077 24 25.478 23.6676 24.3257 23.0028C23.1733 22.3379 22.2758 21.3518 21.6331 20.0443C20.9905 18.7147 20.6691 17.097 20.6691 15.1911C20.6691 13.1745 21.0016 11.4792 21.6664 10.1053C22.3534 8.7313 23.2952 7.68975 24.4919 6.98061C25.6885 6.24931 27.0514 5.88366 28.5805 5.88366Z" fill="#006766"/>
<path d="M47.2279 5.88366C47.9149 5.88366 48.48 6.0277 48.9232 6.31579C49.3886 6.60388 49.7321 6.96953 49.9537 7.41274C50.1753 7.85596 50.2861 8.32133 50.2861 8.80886C50.2861 9.54017 50.0645 10.1496 49.6213 10.6371C49.2002 11.1247 48.6351 11.3684 47.926 11.3684C47.2612 11.3684 46.7182 11.1911 46.2972 10.8366C45.8761 10.482 45.6656 9.99446 45.6656 9.37396C45.6656 8.81994 45.7986 8.35457 46.0645 7.97784C46.3526 7.60111 46.6739 7.30194 47.0285 7.08033C46.7847 6.94737 46.5077 6.90305 46.1975 6.94737C45.6656 6.99169 45.1781 7.18006 44.7349 7.51247C44.2916 7.84488 43.9149 8.25485 43.6047 8.74238C43.2944 9.22992 43.0506 9.75069 42.8734 10.3047C42.7182 10.8587 42.6407 11.3906 42.6407 11.9003V20.1108C42.6407 21.1967 42.9177 21.928 43.4717 22.3047C44.0257 22.6593 44.8346 22.8366 45.8983 22.8366V23.5346C45.3886 23.5125 44.6462 23.4903 43.6711 23.4681C42.7182 23.4238 41.721 23.4017 40.6795 23.4017C39.8152 23.4017 38.9509 23.4238 38.0867 23.4681C37.2445 23.4903 36.613 23.5125 36.1919 23.5346V22.8366C37.0119 22.8366 37.588 22.6704 37.9204 22.3379C38.275 22.0055 38.4523 21.374 38.4523 20.4432V9.9723C38.4523 8.97507 38.2861 8.24377 37.9537 7.77839C37.6434 7.29086 37.0562 7.04709 36.1919 7.04709V6.34903C36.9011 6.41551 37.588 6.44875 38.2529 6.44875C39.0728 6.44875 39.8484 6.41551 40.5797 6.34903C41.3332 6.26039 42.0202 6.1385 42.6407 5.98338V9.44044C42.9066 8.81994 43.2501 8.24377 43.6711 7.71191C44.1144 7.18006 44.6351 6.74792 45.2335 6.41551C45.854 6.06094 46.5188 5.88366 47.2279 5.88366Z" fill="#006766"/>
<path d="M55.4047 23.7673C54.4518 23.7673 53.6429 23.59 52.9781 23.2355C52.3133 22.8587 51.8147 22.3601 51.4823 21.7396C51.1498 21.097 50.9836 20.3878 50.9836 19.6122C50.9836 18.6593 51.2052 17.8837 51.6485 17.2853C52.0917 16.6648 52.6568 16.1773 53.3438 15.8227C54.0529 15.446 54.7953 15.1357 55.5709 14.892C56.3465 14.626 57.0778 14.3823 57.7648 14.1607C58.4518 13.9169 59.0169 13.6399 59.4601 13.3296C59.9033 13.0194 60.1249 12.6094 60.1249 12.0997V9.67313C60.1249 8.96399 60.0141 8.38781 59.7925 7.9446C59.5931 7.47922 59.2828 7.13573 58.8618 6.91413C58.4629 6.67036 57.9532 6.54848 57.3327 6.54848C56.8673 6.54848 56.3798 6.61496 55.8701 6.74792C55.3604 6.88089 54.9393 7.13573 54.6069 7.51247C55.1831 7.66759 55.6263 7.95568 55.9366 8.37673C56.269 8.79778 56.4352 9.30748 56.4352 9.90582C56.4352 10.5928 56.2025 11.1357 55.7371 11.5346C55.2939 11.9114 54.7288 12.0997 54.0418 12.0997C53.3105 12.0997 52.7565 11.867 52.3798 11.4017C52.003 10.9363 51.8147 10.3934 51.8147 9.77285C51.8147 9.15235 51.9698 8.64266 52.28 8.24377C52.5903 7.82271 53.0224 7.44598 53.5764 7.11357C54.1305 6.73684 54.8396 6.43767 55.7039 6.21607C56.5681 5.99446 57.51 5.88366 58.5293 5.88366C59.5044 5.88366 60.3687 5.99446 61.1221 6.21607C61.8756 6.41551 62.5183 6.78116 63.0501 7.31302C63.582 7.82271 63.9255 8.45429 64.0806 9.20776C64.2357 9.96122 64.3133 10.8809 64.3133 11.9668V21.0748C64.3133 21.6288 64.3798 22.0277 64.5127 22.2715C64.6457 22.4931 64.8562 22.6039 65.1443 22.6039C65.3659 22.6039 65.5764 22.5485 65.7759 22.4377C65.9753 22.3269 66.1969 22.1717 66.4407 21.9723L66.8064 22.5374C66.3188 22.9141 65.8091 23.2133 65.2773 23.4349C64.7454 23.6565 64.1028 23.7673 63.3493 23.7673C62.5737 23.7673 61.9532 23.6565 61.4878 23.4349C61.0446 23.2133 60.7122 22.892 60.4906 22.4709C60.2911 22.0499 60.1803 21.5512 60.1582 20.9751C59.6263 21.8615 58.9726 22.5485 58.1969 23.036C57.4213 23.5235 56.4906 23.7673 55.4047 23.7673ZM57.3992 21.9058C57.931 21.9058 58.4185 21.7618 58.8618 21.4737C59.3271 21.1856 59.7482 20.7535 60.1249 20.1773V13.4626C59.9033 13.795 59.582 14.0942 59.1609 14.3601C58.762 14.626 58.3299 14.892 57.8645 15.1579C57.3992 15.4238 56.9559 15.7341 56.5349 16.0886C56.136 16.4211 55.7925 16.8421 55.5044 17.3518C55.2385 17.8393 55.1055 18.4709 55.1055 19.2465C55.1055 20.1108 55.3161 20.7756 55.7371 21.241C56.1582 21.6842 56.7122 21.9058 57.3992 21.9058Z" fill="#006766"/>
</svg>
