<svg width="250" height="250" viewBox="0 0 250 250" fill="none" xmlns="http://www.w3.org/2000/svg">

<circle cx="125.5" cy="109.5" r="75.5" fill="#008284"/>
<g clip-path="url(#clip0_720_73252)">
<path d="M131.5 98H105.833C105.347 98 104.881 97.8068 104.537 97.463C104.193 97.1192 104 96.6529 104 96.1667V88.8333C104 88.3471 104.193 87.8808 104.537 87.537C104.881 87.1932 105.347 87 105.833 87H131.5C131.986 87 132.453 87.1932 132.796 87.537C133.14 87.8808 133.333 88.3471 133.333 88.8333V96.1667C133.333 96.6529 133.14 97.1192 132.796 97.463C132.453 97.8068 131.986 98 131.5 98ZM107.667 94.3333H129.667V90.5567H107.667V94.3333Z" fill="white"/>
<path d="M131.5 101.813H105.833C105.347 101.813 104.881 102.007 104.537 102.35C104.193 102.694 104 103.16 104 103.647V110.833C104 111.32 104.193 111.786 104.537 112.13C104.881 112.474 105.347 112.667 105.833 112.667H126.66L133.333 105.883V103.647C133.333 103.16 133.14 102.694 132.796 102.35C132.453 102.007 131.986 101.813 131.5 101.813ZM129.667 109H107.667V105.333H129.667V109Z" fill="white"/>
<path d="M113.276 133.768V133.658L113.863 131.11H100.333V83.3333H136.999V102.125L140.666 98.66V81.5C140.666 81.0137 140.473 80.5474 140.129 80.2036C139.785 79.8598 139.319 79.6666 138.833 79.6666H98.4993C98.0131 79.6666 97.5468 79.8598 97.203 80.2036C96.8592 80.5474 96.666 81.0137 96.666 81.5V132.833C96.666 133.32 96.8592 133.786 97.203 134.13C97.5468 134.473 98.0131 134.667 98.4993 134.667H113.166C113.181 134.365 113.218 134.065 113.276 133.768Z" fill="white"/>
<path d="M133.334 111.145L131.904 112.593C132.259 112.52 132.584 112.344 132.839 112.086C133.093 111.828 133.266 111.501 133.334 111.145Z" fill="white"/>
<path d="M104 125.39C104 125.876 104.193 126.343 104.537 126.686C104.881 127.03 105.347 127.223 105.833 127.223H114.707L115.257 124.84L115.495 123.832V123.74H107.667V120H119.29L122.957 116.333H105.833C105.347 116.333 104.881 116.527 104.537 116.87C104.193 117.214 104 117.68 104 118.167V125.39Z" fill="white"/>
<path d="M154.398 106.562L148.22 100.383C147.945 100.108 147.62 99.8903 147.261 99.7414C146.902 99.5926 146.518 99.516 146.13 99.516C145.741 99.516 145.357 99.5926 144.998 99.7414C144.64 99.8903 144.314 100.108 144.04 100.383L118.905 125.665L116.833 134.483C116.755 134.864 116.754 135.256 116.828 135.637C116.902 136.018 117.051 136.381 117.265 136.704C117.48 137.028 117.756 137.306 118.078 137.523C118.401 137.739 118.762 137.89 119.143 137.967C119.332 137.986 119.522 137.986 119.711 137.967C119.936 138.003 120.165 138.003 120.39 137.967L129.281 136.005L154.398 110.833C154.672 110.561 154.89 110.237 155.039 109.879C155.187 109.522 155.264 109.139 155.264 108.753C155.264 108.366 155.187 107.983 155.039 107.626C154.89 107.269 154.672 106.944 154.398 106.672V106.562ZM127.411 132.668L120.701 134.153L122.333 127.498L141.18 108.45L146.35 113.62L127.411 132.668ZM148.421 111.548L143.251 106.378L146.166 103.5L151.373 108.707L148.421 111.548Z" fill="white"/>
</g>

</svg>
