<svg width="250" height="237" viewBox="0 0 250 237" fill="none" xmlns="http://www.w3.org/2000/svg">
<circle cx="124.5" cy="109.5" r="75.5" fill="#D7D7D7"/>
<path d="M103.138 97.8625L99.3566 96.1437C98.99 95.9604 98.8066 95.6625 98.8066 95.25C98.8066 94.8375 98.99 94.5396 99.3566 94.3563L103.138 92.6375L104.857 88.8563C105.04 88.4896 105.338 88.3062 105.75 88.3062C106.163 88.3062 106.461 88.4896 106.644 88.8563L108.363 92.6375L112.144 94.3563C112.511 94.5396 112.694 94.8375 112.694 95.25C112.694 95.6625 112.511 95.9604 112.144 96.1437L108.363 97.8625L106.644 101.644C106.461 102.01 106.163 102.194 105.75 102.194C105.338 102.194 105.04 102.01 104.857 101.644L103.138 97.8625ZM139.782 91.4688L137.857 90.575C137.49 90.3917 137.307 90.1167 137.307 89.75C137.307 89.3833 137.49 89.1083 137.857 88.925L139.782 88.0312L140.675 86.1062C140.859 85.7396 141.134 85.5562 141.5 85.5562C141.867 85.5562 142.142 85.7396 142.325 86.1062L143.219 88.0312L145.144 88.925C145.511 89.1083 145.694 89.3833 145.694 89.75C145.694 90.1167 145.511 90.3917 145.144 90.575L143.219 91.4688L142.325 93.3937C142.142 93.7604 141.867 93.9438 141.5 93.9438C141.134 93.9438 140.859 93.7604 140.675 93.3937L139.782 91.4688ZM145.282 102.469L143.357 101.575C142.99 101.392 142.807 101.117 142.807 100.75C142.807 100.383 142.99 100.108 143.357 99.925L145.282 99.0312L146.175 97.1063C146.359 96.7396 146.634 96.5562 147 96.5562C147.367 96.5562 147.642 96.7396 147.825 97.1063L148.719 99.0312L150.644 99.925C151.011 100.108 151.194 100.383 151.194 100.75C151.194 101.117 151.011 101.392 150.644 101.575L148.719 102.469L147.825 104.394C147.642 104.76 147.367 104.944 147 104.944C146.634 104.944 146.359 104.76 146.175 104.394L145.282 102.469ZM125 117.25C122.709 117.25 120.761 116.448 119.157 114.844C117.552 113.24 116.75 111.292 116.75 109V92.5C116.75 90.2083 117.552 88.2604 119.157 86.6562C120.761 85.0521 122.709 84.25 125 84.25C127.292 84.25 129.24 85.0521 130.844 86.6562C132.448 88.2604 133.25 90.2083 133.25 92.5V109C133.25 111.292 132.448 113.24 130.844 114.844C129.24 116.448 127.292 117.25 125 117.25ZM125 111.75C125.78 111.75 126.433 111.486 126.961 110.958C127.489 110.43 127.752 109.777 127.75 109V92.5C127.75 91.7208 127.486 91.0673 126.958 90.5393C126.43 90.0113 125.778 89.7482 125 89.75C124.221 89.75 123.568 90.014 123.04 90.542C122.512 91.07 122.249 91.7227 122.25 92.5V109C122.25 109.779 122.514 110.433 123.042 110.961C123.57 111.489 124.223 111.752 125 111.75ZM125 136.5C124.221 136.5 123.568 136.236 123.04 135.708C122.512 135.18 122.249 134.527 122.25 133.75V128.044C117.988 127.448 114.367 125.66 111.388 122.681C108.409 119.702 106.598 116.127 105.957 111.956C105.819 111.177 106.025 110.49 106.575 109.894C107.125 109.298 107.859 109 108.775 109C109.417 109 109.99 109.241 110.494 109.723C110.998 110.205 111.319 110.789 111.457 111.475C112.052 114.683 113.611 117.365 116.132 119.519C118.652 121.673 121.609 122.75 125 122.75C128.392 122.75 131.348 121.673 133.869 119.519C136.39 117.365 137.948 114.683 138.544 111.475C138.682 110.787 139.013 110.203 139.54 109.721C140.066 109.238 140.651 108.998 141.294 109C142.165 109 142.875 109.298 143.425 109.894C143.975 110.49 144.182 111.177 144.044 111.956C143.402 116.127 141.592 119.702 138.613 122.681C135.634 125.66 132.013 127.448 127.75 128.044V133.75C127.75 134.529 127.486 135.183 126.958 135.711C126.43 136.239 125.778 136.502 125 136.5Z" fill="white"/>
</svg>
