<svg width="426" height="44" viewBox="0 0 426 44" fill="none" xmlns="http://www.w3.org/2000/svg">
<line x1="1.75" x2="1.75" y2="43" stroke="#008083" stroke-width="3.5"/>
<line x1="19.75" y1="10" x2="19.75" y2="43" stroke="#008083" stroke-width="3.5"/>
<line x1="36.75" y1="6" x2="36.75" y2="43" stroke="#008083" stroke-width="3.5"/>
<line x1="53.75" y1="18" x2="53.75" y2="43" stroke="#008083" stroke-width="3.5"/>
<line x1="69.75" y1="9" x2="69.75" y2="43" stroke="#008083" stroke-width="3.5"/>
<line x1="87.75" x2="87.75" y2="43" stroke="#008083" stroke-width="3.5"/>
<line x1="106.75" y1="14" x2="106.75" y2="41" stroke="#008083" stroke-width="3.5"/>
<path d="M121.75 5V41" stroke="#008083" stroke-width="3.5"/>
<line x1="137.75" y1="9" x2="137.75" y2="41" stroke="#008083" stroke-width="3.5"/>
<line x1="155.75" x2="155.75" y2="43" stroke="#008083" stroke-width="3.5"/>
<line x1="168.75" y1="18" x2="168.75" y2="43" stroke="#008083" stroke-width="3.5"/>
<line x1="183.75" y1="10" x2="183.75" y2="43" stroke="#008083" stroke-width="3.5"/>
<line x1="200.75" x2="200.75" y2="43" stroke="#008083" stroke-width="3.5"/>
<line x1="223.75" x2="223.75" y2="43" stroke="#008083" stroke-width="3.5"/>
<line x1="239.75" y1="9" x2="239.75" y2="42" stroke="#008083" stroke-width="3.5"/>
<line x1="256.75" y1="21" x2="256.75" y2="43" stroke="#008083" stroke-width="3.5"/>
<line x1="274.75" x2="274.75" y2="43" stroke="#008083" stroke-width="3.5"/>
<line x1="291.75" y1="19" x2="291.75" y2="41" stroke="#008083" stroke-width="3.5"/>
<line x1="307.75" y1="8" x2="307.75" y2="41" stroke="#008083" stroke-width="3.5"/>
<line x1="325.75" y1="6" x2="325.75" y2="43" stroke="#008083" stroke-width="3.5"/>
<line x1="342.75" y1="5" x2="342.75" y2="43" stroke="#008083" stroke-width="3.5"/>
<line x1="359.75" x2="359.75" y2="43" stroke="#008083" stroke-width="3.5"/>
<line x1="376.75" x2="376.75" y2="43" stroke="#008083" stroke-width="3.5"/>
<line x1="393.75" y1="7" x2="393.75" y2="42" stroke="#008083" stroke-width="3.5"/>
<line x1="411.75" y1="6" x2="411.75" y2="44" stroke="#008083" stroke-width="3.5"/>
<line x1="423.75" x2="423.75" y2="43" stroke="#008083" stroke-width="3.5"/>
</svg>
