<svg width="56" height="56" viewBox="0 0 56 56" fill="none" xmlns="http://www.w3.org/2000/svg">
<rect x="4" y="4" width="48" height="48" rx="24" fill="#B1D7D8"/>
<path d="M37.3812 35.4288V25.9525C37.7831 25.9378 38.1695 25.7936 38.4826 25.5413C38.7958 25.2889 39.0189 24.9421 39.1187 24.5525C39.2304 24.1551 39.2047 23.7316 39.0459 23.3505C38.8872 22.9695 38.6045 22.6531 38.2437 22.4525L28.9312 17.0775C28.6469 16.9177 28.3262 16.8338 28 16.8338C27.6738 16.8338 27.3531 16.9177 27.0687 17.0775L17.7562 22.4525C17.3954 22.6531 17.1128 22.9695 16.954 23.3505C16.7952 23.7316 16.7696 24.1551 16.8812 24.5525C16.9837 24.9547 17.2178 25.3111 17.5462 25.5648C17.8747 25.8185 18.2787 25.955 18.6937 25.9525H18.8562V35.415H18.7062C18.2089 35.415 17.732 35.6125 17.3804 35.9642C17.0288 36.3158 16.8312 36.7927 16.8312 37.29C16.8312 37.7873 17.0288 38.2642 17.3804 38.6158C17.732 38.9675 18.2089 39.165 18.7062 39.165H37.2937C37.7635 39.1373 38.2056 38.9339 38.5324 38.5953C38.8591 38.2567 39.0466 37.8076 39.0577 37.3372C39.0687 36.8667 38.9024 36.4093 38.5919 36.0558C38.2813 35.7023 37.8492 35.4785 37.3812 35.4288ZM18.6937 24.7025C18.556 24.7007 18.4225 24.654 18.3139 24.5693C18.2052 24.4846 18.1272 24.3667 18.0917 24.2335C18.0563 24.1004 18.0655 23.9593 18.1177 23.8318C18.17 23.7043 18.2625 23.5975 18.3812 23.5275L27.6937 18.1663C27.7861 18.1105 27.892 18.081 28 18.081C28.1079 18.081 28.2138 18.1105 28.3062 18.1663L37.625 23.5275C37.7487 23.5942 37.8463 23.7006 37.9021 23.8295C37.9579 23.9585 37.9686 24.1025 37.9325 24.2383C37.8964 24.3742 37.8155 24.4938 37.7031 24.578C37.5906 24.6623 37.453 24.7061 37.3125 24.7025H18.6937ZM36.1312 25.9525V35.415H31.625V25.9525H36.1312ZM30.3687 25.9525V35.415H25.8562V25.9525H30.3687ZM24.6062 25.9525V35.415H20.1062V25.9525H24.6062ZM37.2937 37.915H18.7062C18.5405 37.915 18.3815 37.8492 18.2643 37.7319C18.1471 37.6147 18.0812 37.4558 18.0812 37.29C18.0812 37.1242 18.1471 36.9653 18.2643 36.8481C18.3815 36.7309 18.5405 36.665 18.7062 36.665H37.2937C37.4595 36.665 37.6185 36.7309 37.7357 36.8481C37.8529 36.9653 37.9187 37.1242 37.9187 37.29C37.9187 37.4558 37.8529 37.6147 37.7357 37.7319C37.6185 37.8492 37.4595 37.915 37.2937 37.915Z" fill="#006766"/>
<rect x="4" y="4" width="48" height="48" rx="24" stroke="#E0EFEF" stroke-width="8"/>
</svg>
