<svg width="67" height="24" viewBox="0 0 67 24" fill="none" xmlns="http://www.w3.org/2000/svg">
<path d="M22.3576 0V0.664819C21.9153 0.819943 21.4288 1.17451 20.898 1.72853C20.3673 2.26039 19.8918 3.10249 19.4717 4.25485L12.2071 23.6343C12.0744 23.6343 11.9307 23.6233 11.7759 23.6011C11.6432 23.6011 11.4994 23.6011 11.3446 23.6011C11.1898 23.6011 11.0351 23.6011 10.8802 23.6011C10.7476 23.6233 10.6149 23.6343 10.4822 23.6343L2.15615 2.79224C1.82443 1.9723 1.45955 1.41828 1.06149 1.13019C0.685544 0.842104 0.331715 0.68698 0 0.664819V0C0.574973 0.0221604 1.27157 0.0443208 2.0898 0.0664811C2.93015 0.0886415 3.74838 0.0997217 4.54449 0.0997217C5.51752 0.0997217 6.42421 0.0886415 7.26456 0.0664811C8.12702 0.0443208 8.81256 0.0221604 9.32119 0V0.664819C8.59142 0.68698 8.0275 0.775623 7.62944 0.930748C7.2535 1.06371 7.04341 1.32964 6.99918 1.72853C6.95496 2.10526 7.07658 2.68144 7.36407 3.45706L13.4676 19.1801L12.8374 19.9446L17.8131 6.6482C18.3659 5.16343 18.6424 3.98892 18.6424 3.12465C18.6424 2.26039 18.3991 1.63989 17.9126 1.26316C17.4261 0.886426 16.7295 0.68698 15.8228 0.664819V0C16.5526 0.0221604 17.2381 0.0443208 17.8794 0.0664811C18.5429 0.0886415 19.1952 0.0997217 19.8365 0.0997217C20.3673 0.0997217 20.8317 0.0886415 21.2298 0.0664811C21.6499 0.0443208 22.0259 0.0221604 22.3576 0Z" fill="#052A24"/>
<path d="M28.5207 5.88366C30.4668 5.88366 31.9927 6.47091 33.0984 7.64543C34.2041 8.81994 34.757 10.6925 34.757 13.2632H23.5782L23.545 12.6316H30.9091C30.9533 11.5457 30.887 10.5485 30.7101 9.63989C30.5331 8.70914 30.2457 7.96676 29.8476 7.41274C29.4717 6.85873 28.9741 6.58172 28.3549 6.58172C27.5145 6.58172 26.7848 7.08033 26.1656 8.07756C25.5464 9.05263 25.1594 10.6593 25.0046 12.8975L25.1373 13.097C25.093 13.385 25.0599 13.6953 25.0377 14.0277C25.0377 14.3601 25.0377 14.6925 25.0377 15.0249C25.0377 16.554 25.2589 17.8172 25.7012 18.8144C26.1435 19.8116 26.7184 20.5429 27.4261 21.0083C28.1337 21.4737 28.8635 21.7064 29.6154 21.7064C30.124 21.7064 30.6437 21.6288 31.1745 21.4737C31.7052 21.3186 32.2249 21.0305 32.7335 20.6094C33.2422 20.1884 33.7066 19.59 34.1267 18.8144L34.757 19.0803C34.5137 19.856 34.1046 20.6316 33.5296 21.4072C32.9768 22.1607 32.2581 22.7812 31.3735 23.2687C30.4889 23.7562 29.4495 24 28.2554 24C26.7516 24 25.4247 23.6676 24.2748 23.0028C23.1248 22.3379 22.2292 21.3518 21.5879 20.0443C20.9466 18.7147 20.6259 17.097 20.6259 15.1911C20.6259 13.1745 20.9576 11.4792 21.6211 10.1053C22.3066 8.7313 23.2465 7.68975 24.4407 6.98061C25.6348 6.24931 26.9949 5.88366 28.5207 5.88366Z" fill="#052A24"/>
<path d="M47.1292 5.88366C47.8147 5.88366 48.3786 6.0277 48.8209 6.31579C49.2853 6.60388 49.6281 6.96953 49.8492 7.41274C50.0704 7.85596 50.181 8.32133 50.181 8.80886C50.181 9.54017 49.9598 10.1496 49.5175 10.6371C49.0973 11.1247 48.5334 11.3684 47.8258 11.3684C47.1623 11.3684 46.6205 11.1911 46.2004 10.8366C45.7802 10.482 45.5701 9.99446 45.5701 9.37396C45.5701 8.81994 45.7028 8.35457 45.9682 7.97784C46.2557 7.60111 46.5763 7.30194 46.9301 7.08033C46.6869 6.94737 46.4105 6.90305 46.1009 6.94737C45.5701 6.99169 45.0836 7.18006 44.6413 7.51247C44.199 7.84488 43.8231 8.25485 43.5135 8.74238C43.2039 9.22992 42.9606 9.75069 42.7837 10.3047C42.6289 10.8587 42.5515 11.3906 42.5515 11.9003V20.1108C42.5515 21.1967 42.8279 21.928 43.3808 22.3047C43.9337 22.6593 44.7408 22.8366 45.8023 22.8366V23.5346C45.2937 23.5125 44.5529 23.4903 43.5798 23.4681C42.6289 23.4238 41.6338 23.4017 40.5944 23.4017C39.7319 23.4017 38.8695 23.4238 38.007 23.4681C37.1667 23.4903 36.5364 23.5125 36.1162 23.5346V22.8366C36.9345 22.8366 37.5094 22.6704 37.8412 22.3379C38.195 22.0055 38.3719 21.374 38.3719 20.4432V9.9723C38.3719 8.97507 38.206 8.24377 37.8743 7.77839C37.5647 7.29086 36.9787 7.04709 36.1162 7.04709V6.34903C36.8239 6.41551 37.5094 6.44875 38.1729 6.44875C38.9911 6.44875 39.7651 6.41551 40.4949 6.34903C41.2468 6.26039 41.9323 6.1385 42.5515 5.98338V9.44044C42.8169 8.81994 43.1597 8.24377 43.5798 7.71191C44.0221 7.18006 44.5418 6.74792 45.1389 6.41551C45.7581 6.06094 46.4215 5.88366 47.1292 5.88366Z" fill="#052A24"/>
<path d="M55.2888 23.7673C54.3379 23.7673 53.5308 23.59 52.8673 23.2355C52.2039 22.8587 51.7063 22.3601 51.3746 21.7396C51.0429 21.097 50.877 20.3878 50.877 19.6122C50.877 18.6593 51.0982 17.8837 51.5405 17.2853C51.9827 16.6648 52.5467 16.1773 53.2322 15.8227C53.9399 15.446 54.6807 15.1357 55.4547 14.892C56.2287 14.626 56.9585 14.3823 57.644 14.1607C58.3296 13.9169 58.8935 13.6399 59.3358 13.3296C59.778 13.0194 59.9992 12.6094 59.9992 12.0997V9.67313C59.9992 8.96399 59.8886 8.38781 59.6675 7.9446C59.4684 7.47922 59.1589 7.13573 58.7387 6.91413C58.3406 6.67036 57.832 6.54848 57.2128 6.54848C56.7484 6.54848 56.2619 6.61496 55.7532 6.74792C55.2446 6.88089 54.8244 7.13573 54.4927 7.51247C55.0677 7.66759 55.51 7.95568 55.8196 8.37673C56.1513 8.79778 56.3172 9.30748 56.3172 9.90582C56.3172 10.5928 56.085 11.1357 55.6206 11.5346C55.1783 11.9114 54.6143 12.0997 53.9288 12.0997C53.199 12.0997 52.6462 11.867 52.2702 11.4017C51.8943 10.9363 51.7063 10.3934 51.7063 9.77285C51.7063 9.15235 51.8611 8.64266 52.1707 8.24377C52.4803 7.82271 52.9115 7.44598 53.4644 7.11357C54.0173 6.73684 54.7249 6.43767 55.5874 6.21607C56.4498 5.99446 57.3897 5.88366 58.407 5.88366C59.38 5.88366 60.2424 5.99446 60.9943 6.21607C61.7462 6.41551 62.3875 6.78116 62.9183 7.31302C63.449 7.82271 63.7918 8.45429 63.9466 9.20776C64.1014 9.96122 64.1788 10.8809 64.1788 11.9668V21.0748C64.1788 21.6288 64.2451 22.0277 64.3778 22.2715C64.5105 22.4931 64.7206 22.6039 65.0081 22.6039C65.2292 22.6039 65.4393 22.5485 65.6383 22.4377C65.8374 22.3269 66.0585 22.1717 66.3018 21.9723L66.6667 22.5374C66.1801 22.9141 65.6715 23.2133 65.1408 23.4349C64.61 23.6565 63.9687 23.7673 63.2168 23.7673C62.4428 23.7673 61.8236 23.6565 61.3592 23.4349C60.9169 23.2133 60.5852 22.892 60.3641 22.4709C60.1651 22.0499 60.0545 21.5512 60.0324 20.9751C59.5016 21.8615 58.8492 22.5485 58.0752 23.036C57.3012 23.5235 56.3724 23.7673 55.2888 23.7673ZM57.2791 21.9058C57.8099 21.9058 58.2964 21.7618 58.7387 21.4737C59.2031 21.1856 59.6232 20.7535 59.9992 20.1773V13.4626C59.778 13.795 59.4574 14.0942 59.0372 14.3601C58.6392 14.626 58.2079 14.892 57.7435 15.1579C57.2791 15.4238 56.8368 15.7341 56.4167 16.0886C56.0186 16.4211 55.6758 16.8421 55.3884 17.3518C55.123 17.8393 54.9903 18.4709 54.9903 19.2465C54.9903 20.1108 55.2004 20.7756 55.6206 21.241C56.0407 21.6842 56.5936 21.9058 57.2791 21.9058Z" fill="#052A24"/>
</svg>
